<svg xmlns="http://www.w3.org/2000/svg" viewBox="0 0 280 280" width="100%" height="100%">
  <path d="
    M100 20 H180
    M60 60 H220
    M60 100 H220
    M60 140 H220
    M60 180 H220
    M60 220 H220
    M100 260 H180

    M100 20 V260
    M140 20 V260
    M180 20 V260
    M60 60 V220
    M220 60 V220
  " stroke="#2E2E30" stroke-width="3" fill="none" stroke-linecap="round" stroke-linejoin="round"/>

  <g stroke="#542bff" stroke-width="4" fill="none" stroke-linejoin="round" stroke-linecap="round">
    <polygon points="140,20 180,60 140,100 100,60" />
    
    <polyline points="100,140 140,180 180,140" />
    <line x1="100" y1="100" x2="140" y2="140" />
    <line x1="180" y1="100" x2="140" y2="140" />
    
    <polyline points="100,220 140,260 180,220" />
    <line x1="100" y1="180" x2="140" y2="220" />
    <line x1="180" y1="180" x2="140" y2="220" />

    <line x1="100" y1="60" x2="100" y2="220" />
    <line x1="180" y1="60" x2="180" y2="220" />
    <line x1="140" y1="100" x2="140" y2="260" />
  </g>
</svg>
