<svg data-v-fde0c5aa="" xmlns="http://www.w3.org/2000/svg" viewBox="0 0 300 300" class="iconAbove"><!----><defs data-v-fde0c5aa=""><!----></defs><rect data-v-fde0c5aa="" fill="transparent" x="0" y="0" width="300px" height="300px" class="logo-background-square"></rect><defs data-v-fde0c5aa=""><!----></defs><g data-v-fde0c5aa="" id="773c272a-dd74-44f3-9c0b-7ce4bfb41fbc" fill="#FFFFFF" transform="matrix(5.369483924834448,0,0,5.369483924834448,65.32324436860681,164.53057212951148)"><path d="M-0.35 17.78L-0.35 17.49L-0.35 17.49Q0.21 17.40 0.57 17.14L0.57 17.14L0.57 17.14Q0.92 16.87 1.12 16.21L1.12 16.21L1.12 16.21Q1.32 15.55 1.32 14.38L1.32 14.38L1.32 6.72L1.32 6.72Q1.32 6.19 1.24 5.95L1.24 5.95L1.24 5.95Q1.16 5.71 0.97 5.63L0.97 5.63L0.97 5.63Q0.77 5.54 0.32 5.52L0.32 5.52L0.32 5.24L0.32 5.24Q1.08 5.28 2.66 5.28L2.66 5.28L2.66 5.28Q4.30 5.28 5.15 5.24L5.15 5.24L5.15 5.52L5.15 5.52Q4.70 5.54 4.50 5.63L4.50 5.63L4.50 5.63Q4.30 5.71 4.23 5.95L4.23 5.95L4.23 5.95Q4.16 6.19 4.16 6.72L4.16 6.72L4.16 11.84L4.16 13.01L4.16 13.01Q4.16 13.82 4.11 14.43L4.11 14.43L4.11 14.43Q4.06 15.05 3.92 15.50L3.92 15.50L3.92 15.50Q3.58 16.52 2.51 17.15L2.51 17.15L2.51 17.15Q1.43 17.78-0.35 17.78L-0.35 17.78ZM14.99 5.24L14.99 5.52L14.99 5.52Q14.56 5.61 14.35 5.82L14.35 5.82L14.35 5.82Q14.14 6.02 14.07 6.44L14.07 6.44L14.07 6.44Q14 6.86 14 7.70L14 7.70L14 11.07L14 11.07Q14 13.09 13.43 14.04L13.43 14.04L13.43 14.04Q13.05 14.67 12.31 15.01L12.31 15.01L12.31 15.01Q11.58 15.34 10.42 15.34L10.42 15.34L10.42 15.34Q8.72 15.34 7.78 14.67L7.78 14.67L7.78 14.67Q7.10 14.18 6.87 13.36L6.87 13.36L6.87 13.36Q6.64 12.53 6.64 11.12L6.64 11.12L6.64 6.72L6.64 6.72Q6.64 6.19 6.57 5.95L6.57 5.95L6.57 5.95Q6.50 5.71 6.29 5.63L6.29 5.63L6.29 5.63Q6.09 5.54 5.64 5.52L5.64 5.52L5.64 5.24L5.64 5.24Q6.44 5.28 8.11 5.28L8.11 5.28L8.11 5.28Q9.76 5.28 10.61 5.24L10.61 5.24L10.61 5.52L10.61 5.52Q10.11 5.54 9.88 5.63L9.88 5.63L9.88 5.63Q9.65 5.71 9.56 5.95L9.56 5.95L9.56 5.95Q9.48 6.19 9.48 6.72L9.48 6.72L9.48 12.43L9.48 12.43Q9.48 13.78 9.90 14.31L9.90 14.31L9.90 14.31Q10.32 14.85 11.23 14.85L11.23 14.85L11.23 14.85Q12.56 14.85 13.12 13.91L13.12 13.91L13.12 13.91Q13.68 12.96 13.68 11.23L13.68 11.23L13.68 7.98L13.68 7.98Q13.68 6.94 13.59 6.49L13.59 6.49L13.59 6.49Q13.51 6.03 13.22 5.82L13.22 5.82L13.22 5.82Q12.94 5.61 12.26 5.52L12.26 5.52L12.26 5.24L12.26 5.24Q12.84 5.28 13.83 5.28L13.83 5.28L13.83 5.28Q14.57 5.28 14.99 5.24L14.99 5.24ZM20.52 5.24L20.52 5.52L20.52 5.52Q20.02 5.54 19.79 5.63L19.79 5.63L19.79 5.63Q19.56 5.71 19.47 5.95L19.47 5.95L19.47 5.95Q19.39 6.19 19.39 6.72L19.39 6.72L19.39 13.94L19.39 13.94Q19.39 14.34 19.45 14.52L19.45 14.52L19.45 14.52Q19.50 14.70 19.64 14.76L19.64 14.76L19.64 14.76Q19.78 14.83 20.10 14.83L20.10 14.83L20.57 14.83L20.57 14.83Q21.06 14.83 21.63 14.34L21.63 14.34L21.63 14.34Q22.20 13.85 22.67 13.04L22.67 13.04L22.67 13.04Q23.13 12.24 23.28 11.37L23.28 11.37L23.60 11.37L23.60 11.37Q23.56 11.87 23.56 12.66L23.56 12.66L23.56 12.66Q23.56 14.17 23.66 15.15L23.66 15.15L23.66 15.15Q22.71 15.11 20.45 15.11L20.45 15.11L20.45 15.11Q17.18 15.11 15.55 15.15L15.55 15.15L15.55 14.87L15.55 14.87Q16.00 14.84 16.20 14.76L16.20 14.76L16.20 14.76Q16.41 14.67 16.48 14.43L16.48 14.43L16.48 14.43Q16.55 14.20 16.55 13.66L16.55 13.66L16.55 6.72L16.55 6.72Q16.55 6.19 16.47 5.95L16.47 5.95L16.47 5.95Q16.39 5.71 16.20 5.63L16.20 5.63L16.20 5.63Q16.00 5.54 15.55 5.52L15.55 5.52L15.55 5.24L15.55 5.24Q16.35 5.28 18.05 5.28L18.05 5.28L18.05 5.28Q19.66 5.28 20.52 5.24L20.52 5.24ZM31.78 5.24L31.78 5.52L27.54 14.83L28.13 14.83L28.13 14.83Q28.70 14.83 29.44 14.50L29.44 14.50L29.44 14.50Q30.18 14.17 30.79 13.42L30.79 13.42L30.79 13.42Q31.39 12.67 31.51 11.51L31.51 11.51L31.84 11.51L31.84 11.51Q31.79 12.01 31.79 12.80L31.79 12.80L31.79 12.80Q31.79 14.22 31.89 15.15L31.89 15.15L31.89 15.15Q30.86 15.11 28.41 15.11L28.41 15.11L28.41 15.11Q25.68 15.11 24.44 15.15L24.44 15.15L24.44 14.87L28.69 5.56L27.99 5.56L27.99 5.56Q27.33 5.56 26.67 5.84L26.67 5.84L26.67 5.84Q26.01 6.13 25.51 6.81L25.51 6.81L25.51 6.81Q25.00 7.49 24.85 8.60L24.85 8.60L24.53 8.60L24.53 8.60Q24.57 8.23 24.57 7.59L24.57 7.59L24.57 7.59Q24.57 6.55 24.47 5.24L24.47 5.24L24.47 5.24Q25.34 5.28 27.40 5.28L27.40 5.28L27.40 5.28Q30.42 5.28 31.78 5.24L31.78 5.24Z"></path></g><defs data-v-fde0c5aa=""><!----></defs><g data-v-fde0c5aa="" id="376e77e1-df20-46b1-8ac2-303560127f81" stroke="none" fill="#FFFFFF" transform="matrix(0.6091182736328709,0,0,0.6091182736328709,15.342469735661545,-23.083577150481972)"><path d="M348.75 193.09a23.63 23.63 0 0 0-35.7-13.93l-53.22-64.55a6.62 6.62 0 1 0-11.54-4.19l-101.46 18.9a14.2 14.2 0 1 0-20.94 15.83l.34.18-24.56 53a7.08 7.08 0 1 0-2 13.86 7.13 7.13 0 0 0 4.12-1.32l91.19 95.8a10.83 10.83 0 0 0 2.67 16.48 10.78 10.78 0 0 0 5.48 1.5 11 11 0 0 0 2.75-.35 10.85 10.85 0 0 0 5.84-17.14l97.63-91.3a23.76 23.76 0 0 0 4.58 3.53 23.51 23.51 0 0 0 11.95 3.27 23.81 23.81 0 0 0 6-.77 23.66 23.66 0 0 0 16.95-28.84zm-19.46 19.17a13.57 13.57 0 0 1-10.35-1.44 13.76 13.76 0 0 1-2.34-1.74 13.77 13.77 0 0 1-4-6.6 13.79 13.79 0 0 1-.36-2.07 13 13 0 0 1 .82-6.23 13.81 13.81 0 0 1 1-2.06c.06-.1.13-.19.19-.29a13.79 13.79 0 0 1 1.22-1.67 13.48 13.48 0 0 1 4-3.19 13.58 13.58 0 0 1 6.39-1.59 13.66 13.66 0 0 1 3.41 26.88zM207.78 312.63a4.81 4.81 0 0 1-.51 3.67 4.85 4.85 0 1 1-8.35-4.91c.06-.1.13-.18.2-.27a4.78 4.78 0 0 1 1.28-1.28l.17-.1a4.82 4.82 0 0 1 1.31-.58c.16 0 .31-.07.47-.09a4.88 4.88 0 0 1 .75-.07 5 5 0 0 1 2.45.67c.11.07.2.15.31.22a4.77 4.77 0 0 1 1.37 1.46 4.82 4.82 0 0 1 .55 1.28zm-7.42-9.28l-.17.05-37.57-99 34.25-.93 4.71 99.59a11 11 0 0 0-1.22.3zM100.91 208a3.08 3.08 0 1 1-1.28-5.88H100.21a3 3 0 0 1 1 .35 3 3 0 0 1 1.39 3.5v.08a3.07 3.07 0 0 1-.21.49s0 .1-.07.15a3.06 3.06 0 0 1-1.41 1.31zm26.82-78.19a6.17 6.17 0 0 1 11.16 1c.07.18.15.35.2.54a6.23 6.23 0 0 1 .19 1.42v.18a6.13 6.13 0 0 1-.39 2.12 6.27 6.27 0 0 1-.47 1 6.2 6.2 0 0 1-7 2.83h-.14a6.23 6.23 0 0 1-1.34-.58l-.33-.22a6.21 6.21 0 0 1-1.88-8.34zm17.6 10.34a14.27 14.27 0 0 0 1.32-3l43.12 11.18L150.3 172l-10.17-26.78a14.11 14.11 0 0 0 5.2-5.12zm107.31-31.22a2.6 2.6 0 0 1 1.6-1.21 2.66 2.66 0 0 1 .66-.08 2.61 2.61 0 0 1 2.3 3.85v.1a2.59 2.59 0 0 1-1.28 1.09l-.29.11a2.61 2.61 0 0 1-1.34 0 3.5 3.5 0 0 1-.68-.27l-.19-.14a2.58 2.58 0 0 1-.67-.7l-.11-.18a2.62 2.62 0 0 1-.24-.58 2.66 2.66 0 0 1 0-.27 2.69 2.69 0 0 1 .32-1.71zm-51.77 77.67a4.53 4.53 0 1 1-3.9-6.83 4.44 4.44 0 0 1 3.76 2.1 3.83 3.83 0 0 1 .68 1.88 4.49 4.49 0 0 1-.54 2.8zm3.18-7l17.35-23.08 21.26 5.51a11.9 11.9 0 0 0 .27 4.68v.07l-38.36 13.76a8.53 8.53 0 0 0-.57-1.02zm47.72-63.6a6.58 6.58 0 0 0 2.07.7l-.28 35a11.91 11.91 0 0 0-9.37 5.84c-.06.1-.1.2-.16.3l-20.12-4.79zm8.49 48.77a5.88 5.88 0 0 1-.69 1.83 6 6 0 0 1-.66.91 5.9 5.9 0 0 1-9.59-1 6 6 0 0 1-.77-3.06 6 6 0 0 1 4.45-5.55c.18 0 .36-.07.53-.1a5.92 5.92 0 0 1 1-.09 6.25 6.25 0 0 1 3 .82 5.93 5.93 0 0 1 2.73 6.27zM250 114.65l-30.46 37.4-21.77-5.18 52.11-32.36zm-33.08 40.62l-17.06 21a8.51 8.51 0 0 0-11.38 8.82l-30.72 6.6-6.12-16.12 42.22-26.23zM153 192.66l-44.3 9.51 38.48-23.9zm.76 1.88l3.24 8.06-46.64 1.26zm4.68-1l30.45-6.54a8.44 8.44 0 0 0 7.47 5.74l.42 8.78-34.91.94zm39.88-.88a8.49 8.49 0 0 0 6.91-10.32l38.37-13.76a11.89 11.89 0 0 0 20.7 1.69l.59.3 11.41 5.72 13.11 6.48 13.16 6.4 1.45.7a23.39 23.39 0 0 0-1.85 8.81l-103.42 2.79zm110.98-10.5a23.75 23.75 0 0 0-3.84 4.89l-.1.18-1.43-.73-13.06-6.6-13.1-6.52-11.46-5.62-.57-.28a11.89 11.89 0 0 0-10.18-15.7l.28-35a6.67 6.67 0 0 0 2.27-.76zm-60.64-69.77c0 .11.08.22.13.33l-55.12 33.18-46.51-11.08a14.08 14.08 0 0 0 0-3.53zM128 146.18a13.76 13.76 0 0 0 6.55.85l11.19 27.7-41.58 25a7 7 0 0 0-.72-.53zm-22.85 63.37a7.09 7.09 0 0 0 .55-.8 7 7 0 0 0 .92-2.78l51.19-1.38 40.27 99.64a10.73 10.73 0 0 0-1.75 1.12zm105.1 96.2a11 11 0 0 0-1.71-1.24 10.79 10.79 0 0 0-5-1.49l-4.71-99.54 103.39-2.79A23.91 23.91 0 0 0 303 205a23.54 23.54 0 0 0 5 9.46z" data-name="Immersive experience"></path></g><!----></svg>
