<?xml version="1.0" standalone="no"?>
<!DOCTYPE svg PUBLIC "-//W3C//DTD SVG 20010904//EN"
 "http://www.w3.org/TR/2001/REC-SVG-20010904/DTD/svg10.dtd">
<svg version="1.0" xmlns="http://www.w3.org/2000/svg"
 width="640.000000pt" height="325.000000pt" viewBox="0 0 640.000000 325.000000"
 preserveAspectRatio="xMidYMid meet">

<g transform="translate(0.000000,325.000000) scale(0.100000,-0.100000)"
fill="#000000" stroke="none">
<path d="M758 2913 l-426 -3 7 -27 c4 -15 15 -27 26 -29 95 -11 114 -17 132
-37 50 -54 48 -13 51 -972 2 -562 -1 -950 -7 -1034 -17 -219 -66 -354 -153
-424 -21 -17 -73 -42 -115 -57 -70 -23 -78 -29 -81 -53 l-3 -27 79 0 c174 0
396 56 540 136 99 55 219 180 265 274 78 159 87 293 87 1300 0 425 5 772 10
795 24 107 159 118 203 17 8 -19 13 -229 18 -702 7 -661 10 -720 43 -849 57
-224 237 -366 526 -417 99 -17 345 -20 440 -5 224 36 387 142 464 304 89 184
105 344 106 1012 0 526 4 573 46 646 11 19 39 45 63 58 37 20 46 22 66 11 13
-7 32 -29 42 -49 17 -34 18 -92 21 -896 2 -599 0 -876 -8 -911 -15 -71 -42
-93 -129 -107 -69 -10 -72 -12 -69 -36 l3 -26 1595 0 1595 0 -3 35 c-1 19 -4
190 -7 380 -5 271 -9 347 -19 354 -26 18 -44 -2 -56 -61 -38 -194 -111 -329
-244 -451 -137 -124 -337 -202 -522 -202 -52 0 -64 3 -64 16 0 9 203 461 450
1006 248 544 450 998 450 1009 0 19 -19 19 -786 19 l-787 0 7 -47 c5 -35 18
-534 16 -650 0 -8 12 -13 28 -13 28 0 29 2 55 108 37 149 92 256 181 347 81
82 122 110 220 149 105 42 345 72 383 48 8 -5 -110 -275 -380 -869 -341 -751
-393 -859 -400 -835 -5 15 -6 123 -3 239 l6 213 -33 0 -32 0 -24 -92 c-65
-249 -262 -523 -438 -610 -65 -32 -73 -33 -183 -33 -139 0 -161 10 -179 79
-16 63 -16 1713 0 1788 19 89 73 121 204 121 18 0 24 6 27 28 l5 29 -446 1
c-245 1 -576 2 -736 3 -283 1 -290 1 -291 -19 -1 -31 13 -42 63 -50 108 -16
184 -71 212 -155 25 -74 33 -292 28 -757 -4 -373 -8 -485 -21 -553 -53 -280
-171 -429 -375 -471 -82 -17 -246 -8 -302 18 -65 29 -114 76 -144 138 -52 105
-54 150 -54 925 0 393 3 732 8 753 17 72 59 99 176 111 28 2 51 5 53 5 1 1 2
12 2 26 l0 25 -393 0 c-217 0 -454 1 -528 3 -74 2 -326 2 -561 0z"/>
</g>
</svg>
