<?xml version="1.0" standalone="no"?>
<!DOCTYPE svg PUBLIC "-//W3C//DTD SVG 20010904//EN"
 "http://www.w3.org/TR/2001/REC-SVG-20010904/DTD/svg10.dtd">
<svg version="1.0" xmlns="http://www.w3.org/2000/svg"
 width="150px" viewBox="0 0 1432.000000 660.000000"
 preserveAspectRatio="xMidYMid meet">

<g transform="translate(0.000000,660.000000) scale(0.100000,-0.100000)"
fill="#ffffff" stroke="none">
<path d="M3465 5216 c-41 -18 -72 -54 -82 -96 l-9 -35 -465 -87 c-612 -115
-1600 -298 -1619 -301 -8 -1 -23 17 -37 45 -86 179 -315 225 -462 92 -78 -70
-113 -175 -92 -275 14 -65 68 -150 111 -176 18 -10 29 -24 27 -33 -2 -8 -115
-256 -252 -550 l-248 -535 -47 -1 c-158 -2 -196 -217 -48 -278 43 -18 49 -18
94 -3 27 9 49 15 49 14 2 -3 1763 -1856 1832 -1928 l54 -55 -27 -48 c-23 -41
-26 -56 -22 -115 4 -84 36 -137 103 -177 114 -67 257 -26 317 89 30 59 30 150
-1 203 l-23 38 39 35 c38 35 1785 1667 1915 1790 39 36 73 61 80 57 7 -3 34
-21 61 -40 112 -81 280 -108 414 -68 358 109 471 552 208 813 -64 64 -111 93
-190 118 -127 41 -243 35 -361 -19 l-64 -29 -536 652 c-296 359 -544 660 -552
669 -12 15 -12 20 2 40 22 32 20 104 -4 143 -12 20 -37 39 -60 49 -48 19 -65
19 -105 2z m90 -96 c37 -41 -8 -102 -59 -79 -33 16 -42 44 -22 74 20 30 56 32
81 5z m-180 -89 c-6 -5 -262 -161 -570 -346 l-560 -336 -470 112 c-259 61
-476 114 -483 117 -8 3 -12 18 -10 40 l3 36 635 118 c349 65 811 151 1025 192
399 76 446 83 430 67z m28 -43 c-4 -7 -144 -182 -312 -388 -167 -206 -305
-376 -306 -378 -3 -4 -429 100 -437 107 -5 5 1040 666 1060 670 2 1 0 -5 -5
-11z m87 -393 l0 -363 -32 -7 c-52 -12 -90 -34 -133 -80 l-41 -43 -197 48
c-109 26 -200 50 -203 53 -3 3 123 176 280 385 241 322 288 380 305 375 21 -5
21 -11 21 -368z m630 -320 c277 -357 507 -656 512 -662 7 -9 -1 -27 -28 -63
-21 -27 -41 -50 -45 -50 -4 0 -188 90 -410 200 l-404 199 3 69 c4 79 -10 120
-58 176 -34 38 -83 68 -132 80 l-28 6 0 334 c0 183 3 347 6 364 8 38 32 45 60
18 12 -12 248 -313 524 -671z m-3093 464 c42 -16 72 -48 84 -92 9 -32 7 -45
-11 -82 -26 -54 -74 -80 -133 -72 -120 16 -146 194 -34 242 39 17 57 18 94 4z
m688 -324 c226 -58 418 -108 428 -111 13 -4 -102 -79 -388 -250 -224 -135
-409 -243 -411 -242 -6 7 -204 533 -204 544 0 7 16 24 35 39 20 14 50 51 66
81 22 39 36 53 48 50 9 -3 201 -53 426 -111z m-757 -88 l63 -12 98 -240 c53
-132 105 -259 114 -282 l17 -42 -427 -256 c-234 -141 -431 -257 -437 -258 -6
-1 -10 4 -8 11 1 7 102 228 224 490 121 262 233 505 249 540 15 34 32 62 36
61 4 0 36 -6 71 -12z m1535 -112 c125 -32 227 -61 227 -64 0 -3 -77 -100 -171
-216 -151 -186 -174 -210 -198 -207 -56 6 -112 -9 -147 -40 -43 -38 -56 -62
-63 -113 l-6 -40 -315 -67 c-173 -37 -317 -64 -321 -60 -13 15 -120 306 -117
319 3 16 857 553 873 549 6 -2 112 -29 238 -61z m769 -249 c2 -41 0 -50 -17
-57 -101 -44 -772 -276 -779 -269 -4 4 72 114 173 248 l182 240 218 -56 219
-57 4 -49z m307 119 c16 -8 36 -31 46 -51 25 -53 15 -101 -31 -143 -33 -30
-40 -33 -85 -29 -58 6 -94 34 -108 85 -29 104 80 189 178 138z m-256 -257 c39
-53 125 -93 198 -91 68 2 138 32 175 76 l25 30 407 -202 c315 -156 407 -205
405 -219 -1 -9 -8 -51 -15 -92 l-14 -75 -45 -2 c-44 -3 -733 -22 -1621 -45
-257 -6 -469 -10 -471 -7 -3 2 -7 43 -11 91 l-7 86 34 11 c67 22 117 98 117
176 l0 30 393 141 c215 78 394 139 398 135 3 -3 17 -23 32 -43z m-1971 -304
c31 -76 54 -142 50 -145 -9 -7 -882 -192 -887 -188 -5 6 759 478 770 475 5 -1
35 -65 67 -142z m1032 98 c29 -27 38 -61 26 -98 -23 -69 -99 -86 -151 -35 -83
84 37 212 125 133z m2736 -122 c61 -30 97 -65 128 -125 22 -42 27 -63 27 -130
0 -71 -3 -86 -31 -135 -116 -206 -410 -190 -506 28 -29 64 -28 152 2 220 28
65 105 136 169 157 62 20 155 14 211 -15z m-2947 -40 c22 -36 66 -68 105 -76
30 -6 30 -7 37 -91 4 -47 3 -89 -2 -93 -4 -4 -168 -11 -364 -15 l-355 -7 -33
87 c-18 47 -30 89 -26 93 7 8 567 130 600 131 13 1 27 -10 38 -29z m-714 -201
c17 -45 30 -83 29 -84 -5 -5 -909 -28 -913 -23 -4 3 807 184 841 187 6 1 25
-36 43 -80z m3051 -68 c0 -38 40 -147 75 -205 29 -49 33 -61 23 -74 -11 -13
-1911 -1789 -1985 -1855 -22 -19 -22 -19 -65 1 -24 12 -55 24 -70 27 -16 4
-28 12 -28 19 0 6 -23 468 -49 1026 -27 558 -47 1017 -44 1020 2 2 369 14 816
27 1437 39 1327 38 1327 14z m-4165 -25 c21 -15 25 -67 5 -90 -17 -21 -69 -20
-92 1 -22 20 -23 61 -1 85 19 21 62 24 88 4z m1979 -88 c18 -228 93 -1984 85
-1992 -6 -6 -12 -6 -17 0 -8 9 -768 2008 -774 2035 -3 15 141 22 519 27 l181
2 6 -72z m-488 -753 c178 -440 365 -902 416 -1028 84 -207 91 -229 76 -243
-14 -15 -95 68 -918 933 -497 521 -923 969 -947 994 l-44 45 15 36 c15 36 16
36 88 42 91 7 735 23 882 22 l109 -1 323 -800z m685 -1394 c42 -42 40 -92 -5
-137 -45 -45 -95 -47 -137 -5 -23 23 -29 38 -29 71 0 91 106 135 171 71z"/>
<path d="M6102 4350 l3 -35 62 -6 c89 -8 140 -34 166 -83 l22 -41 3 -1185 c2
-827 0 -1215 -8 -1284 -27 -238 -96 -389 -210 -461 -35 -22 -130 -58 -182 -70
-25 -5 -28 -10 -28 -45 0 -40 0 -40 38 -40 91 0 286 23 382 44 145 33 254 77
358 145 239 159 332 307 383 613 9 53 14 376 18 1173 6 1074 6 1101 26 1140
23 46 76 85 115 85 39 0 92 -39 115 -85 19 -39 20 -66 26 -850 4 -570 10 -837
18 -900 60 -423 264 -629 697 -702 155 -26 442 -24 574 4 175 37 292 97 402
206 55 55 77 87 117 170 107 223 112 273 121 1152 5 499 11 738 19 780 22 110
84 193 159 212 31 8 71 -22 97 -73 20 -38 20 -62 23 -1088 2 -686 -1 -1068 -8
-1105 -18 -97 -62 -134 -180 -148 l-65 -8 -3 -35 -3 -35 1956 0 1956 0 -8 140
c-4 77 -8 292 -8 478 l0 338 -40 -3 -39 -3 -12 -75 c-23 -150 -59 -244 -139
-365 -123 -185 -301 -317 -525 -390 -71 -24 -107 -29 -222 -33 -76 -2 -138 -2
-138 1 0 3 250 554 555 1224 393 861 555 1226 553 1246 l-3 29 -958 1 -959 2
6 -50 c13 -104 26 -575 20 -697 l-7 -128 41 0 c40 0 41 1 48 38 56 329 205
546 463 677 101 51 226 75 388 75 112 0 144 -3 140 -12 -15 -38 -941 -2067
-953 -2088 -13 -22 -14 12 -12 278 l3 302 -42 0 c-35 0 -43 -3 -43 -19 0 -35
-51 -196 -92 -289 -113 -259 -332 -507 -503 -571 -73 -27 -297 -31 -351 -5
-68 32 -65 -25 -62 1189 l3 1090 23 43 c29 55 85 81 188 89 l74 6 0 36 0 36
-895 0 -895 0 0 -36 c0 -36 1 -36 49 -43 162 -21 253 -90 287 -219 25 -95 36
-429 31 -961 -5 -538 -10 -603 -58 -791 -77 -303 -277 -465 -574 -465 -271 0
-403 114 -450 389 -13 75 -15 220 -13 1002 l3 914 23 43 c29 55 85 81 188 89
l74 6 0 36 0 36 -1165 0 -1166 0 3 -35z"/>
</g>
</svg>
