<?xml version="1.0" standalone="no"?>
<!DOCTYPE svg PUBLIC "-//W3C//DTD SVG 20010904//EN"
 "http://www.w3.org/TR/2001/REC-SVG-20010904/DTD/svg10.dtd">
<svg version="1.0" xmlns="http://www.w3.org/2000/svg"
 width="2000.000000pt" height="666.000000pt" viewBox="0 0 2000.000000 666.000000"
 preserveAspectRatio="xMidYMid meet">
<metadata>
Created by potrace 1.16, written by Peter Selinger 2001-2019
</metadata>
<g transform="translate(0.000000,666.000000) scale(0.100000,-0.100000)"
fill="#000000" stroke="none">
<path d="M4841 6638 c-50 -25 -95 -87 -104 -146 l-7 -37 -1522 -284 c-838
-155 -1531 -285 -1540 -288 -11 -2 -18 1 -18 10 0 34 -64 138 -115 186 -117
110 -279 149 -432 103 -192 -59 -311 -232 -301 -440 6 -134 60 -235 168 -321
l47 -37 -371 -800 -371 -801 -40 5 c-127 14 -234 -85 -235 -217 0 -163 171
-270 313 -196 l27 14 778 -816 c427 -449 1049 -1103 1382 -1452 l606 -636 -36
-69 c-32 -62 -35 -76 -35 -150 0 -92 26 -162 85 -229 l32 -37 213 0 213 0 32
37 c58 66 84 137 85 228 0 70 -4 89 -30 142 l-31 61 1481 1385 1480 1384 36
-32 c20 -18 67 -51 105 -73 224 -132 504 -130 737 5 88 51 214 181 259 268 69
132 83 193 83 350 0 157 -14 214 -83 350 -55 107 -191 238 -302 292 -126 62
-194 77 -335 77 -133 1 -215 -19 -328 -76 -33 -16 -63 -26 -67 -21 -4 4 -366
444 -804 976 l-797 968 20 42 c23 48 28 128 10 174 -14 38 -67 92 -106 109
-49 21 -131 18 -182 -8z m146 -130 c33 -30 31 -80 -3 -107 -15 -12 -34 -21
-44 -21 -34 0 -70 39 -70 76 0 66 69 97 117 52z m-262 -136 c-19 -17 -1646
-992 -1654 -992 -5 0 -321 74 -701 165 -381 91 -694 165 -697 165 -2 0 -3 24
-1 52 l3 53 1505 281 c828 155 1516 282 1530 283 14 0 20 -3 15 -7z m33 -79
c-15 -18 -890 -1095 -893 -1101 -2 -3 -638 148 -643 152 -3 3 1538 964 1547
965 2 1 -3 -7 -11 -16z m120 -29 l22 -6 0 -483 c0 -265 -3 -503 -6 -528 -6
-44 -8 -46 -52 -57 -86 -21 -161 -71 -211 -140 l-26 -36 -295 70 c-162 38
-297 71 -299 73 -6 4 828 1113 837 1113 4 0 17 -3 30 -6z m925 -981 c420 -544
767 -994 771 -1000 5 -10 -59 -107 -100 -152 -2 -3 -271 128 -597 289 l-592
294 0 111 c0 102 -2 114 -29 168 -16 32 -51 78 -78 103 -49 46 -137 94 -173
94 -11 0 -25 4 -31 8 -9 5 -10 147 -6 530 5 521 5 524 26 532 12 5 26 9 33 9
6 1 355 -443 776 -986z m-4500 653 c41 -17 91 -74 107 -121 42 -127 -99 -267
-227 -224 -55 18 -90 47 -113 94 -73 151 80 316 233 251z m994 -471 c351 -92
639 -167 640 -169 2 -2 -261 -161 -584 -355 -323 -193 -590 -348 -594 -344
-10 10 -299 772 -299 787 0 6 17 22 37 36 46 31 110 111 134 168 10 23 21 42
24 42 3 0 292 -74 642 -165z m-1092 -132 l72 -6 167 -414 c92 -228 166 -416
164 -418 -25 -24 -1255 -751 -1261 -746 -4 4 160 368 364 809 l371 801 25 -10
c14 -5 58 -12 98 -16z m2224 -159 c185 -48 338 -88 340 -90 2 -1 -111 -143
-250 -314 l-253 -312 -43 7 c-64 9 -126 -3 -185 -39 -64 -38 -103 -98 -119
-181 -7 -33 -12 -61 -13 -62 -2 -3 -892 -193 -906 -193 -10 0 -43 74 -106 239
l-90 238 635 396 c350 218 640 396 645 396 5 1 161 -38 345 -85z m815 -214
c171 -44 311 -82 312 -83 1 -1 4 -32 6 -69 5 -65 5 -67 -21 -77 -87 -35 -1117
-401 -1128 -401 -7 0 -13 4 -13 10 0 12 519 700 528 700 4 0 146 -36 316 -80z
m752 31 c106 -48 137 -182 61 -268 -87 -99 -227 -81 -288 39 -25 48 -24 91 2
145 43 88 138 124 225 84z m-372 -366 c36 -57 101 -108 174 -136 47 -17 73
-20 143 -17 104 5 175 35 244 105 l46 45 387 -192 c213 -107 479 -238 592
-292 113 -55 207 -101 209 -103 2 -3 -4 -33 -14 -67 -10 -35 -21 -91 -25 -126
-5 -35 -10 -66 -13 -68 -6 -6 -3125 -90 -3130 -84 -2 3 -7 62 -10 133 -4 106
-3 127 9 127 23 0 107 46 131 72 11 12 32 43 44 68 21 40 24 60 24 170 0 3
1135 408 1145 409 8 1 28 -19 44 -44z m-2875 -464 c45 -112 81 -205 79 -207
-2 -1 -289 -64 -638 -139 -349 -75 -642 -138 -650 -140 -26 -8 21 22 574 366
298 185 544 334 547 330 3 -3 43 -98 88 -210z m1497 154 c58 -38 79 -118 45
-173 -26 -41 -77 -72 -117 -72 -70 0 -143 86 -130 154 18 94 124 142 202 91z
m3926 -156 c216 -45 363 -250 331 -459 -53 -342 -473 -474 -704 -222 -117 127
-144 295 -74 450 49 108 177 208 295 231 64 13 92 12 152 0z m-4145 -169 c26
-17 61 -33 79 -36 18 -3 37 -11 42 -18 6 -6 12 -65 14 -132 l4 -121 -256 -6
c-140 -4 -377 -10 -526 -13 l-271 -7 -50 129 c-28 71 -49 131 -48 132 2 2 207
48 457 101 l453 97 28 -48 c17 -31 45 -60 74 -78z m-1123 -216 c26 -64 46
-118 44 -119 -5 -6 -1179 -37 -1248 -33 -59 3 -5 16 545 135 336 72 611 132
611 132 1 1 23 -51 48 -115z m4479 -123 c10 -81 55 -201 108 -284 27 -43 49
-80 49 -82 0 -3 -649 -611 -1442 -1351 -794 -741 -1459 -1362 -1478 -1380
l-35 -33 -69 34 c-37 19 -81 35 -97 35 -15 0 -30 4 -33 9 -7 10 -150 3010
-145 3015 4 4 2810 83 3010 85 l126 1 6 -49z m-6130 -2 c55 -25 66 -102 21
-144 -31 -28 -62 -31 -103 -10 -65 33 -53 132 19 158 24 9 37 8 63 -4z m2917
-33 c0 -2 32 -669 70 -1482 39 -814 70 -1493 70 -1511 0 -25 -4 -33 -17 -33
-15 0 -130 297 -585 1497 -312 823 -566 1498 -565 1500 2 1 214 9 473 16 258
8 488 15 512 16 23 0 42 -1 42 -3z m-678 -1296 c279 -690 553 -1369 609 -1508
98 -243 101 -253 83 -267 -10 -8 -22 -13 -26 -12 -4 1 -627 654 -1386 1451
l-1378 1449 20 53 c20 50 23 54 56 55 19 0 305 9 635 19 330 9 663 17 740 16
l140 -1 507 -1255z m947 -1939 c99 -70 81 -213 -32 -256 -141 -54 -252 122
-146 232 53 54 123 64 178 24z"/>
<path d="M8830 5736 l0 -56 43 0 c59 0 171 -26 202 -46 39 -25 73 -91 84 -164
14 -86 15 -2996 1 -3130 -23 -219 -52 -333 -117 -464 -69 -138 -180 -221 -355
-266 l-88 -23 0 -54 0 -53 83 0 c150 1 370 31 547 75 235 60 419 159 585 317
168 159 245 302 294 543 42 212 44 285 50 1715 6 1296 7 1377 24 1415 39 87
100 119 245 132 l72 6 0 55 0 54 -112 -7 c-148 -10 -1323 -10 -1455 0 l-103 7
0 -56z"/>
<path d="M10660 5736 l0 -56 38 0 c54 0 168 -26 201 -46 34 -20 70 -80 84
-138 6 -24 13 -467 16 -1076 6 -908 9 -1050 25 -1160 25 -179 59 -300 117
-420 45 -91 63 -117 138 -191 96 -95 166 -144 286 -199 196 -91 416 -130 732
-130 455 0 724 93 940 324 108 115 196 304 238 508 46 222 47 254 55 1208 5
503 11 929 14 945 4 17 12 57 17 90 13 74 61 167 103 198 42 33 102 61 159 77
l47 13 0 51 0 51 -470 0 -470 0 0 -52 0 -52 48 -6 c70 -10 173 -42 228 -71 67
-35 108 -77 138 -139 57 -121 66 -275 66 -1150 0 -785 -5 -882 -51 -1108 -25
-123 -49 -196 -99 -303 -76 -164 -154 -252 -280 -318 -228 -119 -568 -121
-752 -5 -118 76 -182 195 -226 422 -13 71 -16 238 -19 1217 -4 1184 -2 1264
38 1342 35 68 116 103 270 115 l79 6 0 55 0 54 -112 -7 c-147 -10 -1362 -10
-1495 0 l-103 7 0 -56z"/>
<path d="M14050 5736 l0 -56 43 0 c23 0 73 -7 112 -15 134 -29 171 -87 185
-300 12 -166 12 -2388 1 -2555 -11 -162 -24 -206 -70 -251 -40 -37 -90 -53
-208 -65 l-63 -7 0 -55 0 -55 123 6 c236 12 1747 18 2202 9 253 -5 461 -8 463
-7 1 1 -3 74 -10 161 -8 101 -13 338 -13 652 l0 492 -56 0 -56 0 -13 -62 c-67
-331 -305 -746 -543 -948 -87 -74 -167 -124 -245 -153 -50 -19 -78 -22 -227
-22 -200 0 -235 10 -270 80 -20 39 -20 60 -20 1465 0 1165 2 1433 13 1470 18
58 75 115 131 130 63 17 150 30 199 30 l42 0 0 56 0 56 -112 -7 c-62 -4 -399
-8 -748 -8 -349 0 -686 4 -747 8 l-113 7 0 -56z"/>
<path d="M17113 5739 c16 -142 29 -544 26 -812 l-4 -297 56 0 57 0 16 89 c33
179 100 354 190 494 49 77 177 209 253 262 143 100 301 160 482 184 121 16
365 15 358 -1 -3 -7 -330 -725 -726 -1594 -663 -1455 -721 -1586 -721 -1634
l0 -53 98 6 c191 13 1455 18 1952 9 278 -5 506 -8 508 -7 1 1 -3 76 -10 166
-8 100 -13 346 -13 627 l0 462 -56 0 -56 0 -16 -103 c-76 -494 -443 -886 -941
-1008 -53 -13 -135 -22 -239 -26 l-157 -6 65 144 c1386 3036 1385 3033 1385
3094 l0 58 -187 -8 c-256 -9 -2104 -10 -2227 0 l-99 8 6 -54z"/>
<path d="M15165 1884 c-11 -2 -45 -9 -75 -15 -113 -21 -203 -77 -242 -152 -18
-34 -22 -58 -22 -132 0 -82 3 -94 29 -135 31 -49 98 -120 114 -120 5 0 11 -4
13 -9 2 -5 51 -41 110 -81 134 -89 213 -172 222 -235 14 -93 -12 -141 -93
-170 -165 -58 -313 70 -336 289 -9 88 -12 96 -40 96 l-23 0 -7 -221 c-6 -183
-5 -223 6 -230 23 -14 29 -11 45 26 16 40 21 41 72 19 100 -42 157 -54 272
-54 214 0 347 59 412 184 15 30 20 58 20 123 0 156 -47 213 -340 412 -51 35
-110 84 -132 109 -37 42 -40 49 -40 107 0 54 3 64 28 88 15 14 48 31 73 38
129 35 261 -86 292 -268 8 -47 16 -64 30 -69 10 -3 22 -3 25 1 8 7 20 353 14
373 -9 26 -42 12 -57 -24 l-15 -35 -32 17 c-18 9 -42 21 -53 27 -48 24 -224
51 -270 41z"/>
<path d="M16900 1884 c-182 -34 -244 -57 -341 -130 -55 -42 -122 -123 -148
-179 -44 -93 -50 -129 -51 -271 0 -125 3 -149 24 -208 37 -102 114 -216 145
-216 6 0 11 -5 11 -10 0 -6 10 -15 23 -20 12 -6 29 -14 37 -20 66 -42 197 -70
323 -70 87 0 115 4 173 26 38 14 78 28 89 31 11 4 29 12 40 19 11 7 36 15 56
19 43 8 69 -12 69 -55 0 -27 22 -46 41 -34 5 3 9 83 10 177 1 219 6 261 37
265 16 3 22 10 22 28 l0 24 -276 0 -275 0 3 -22 c2 -19 10 -23 48 -26 25 -2
56 -11 69 -21 22 -17 25 -30 34 -133 10 -119 5 -193 -16 -222 -31 -42 -142
-33 -194 16 -64 59 -97 148 -113 303 -6 61 -13 121 -14 134 -5 34 30 279 46
321 31 80 83 148 143 185 46 29 167 27 233 -4 29 -14 52 -28 52 -33 0 -4 6 -8
13 -8 32 0 106 -170 107 -247 0 -17 6 -23 24 -23 21 0 24 5 29 68 4 37 7 124
7 195 l0 127 -30 0 c-28 0 -30 -2 -30 -39 0 -56 -21 -69 -62 -38 -45 34 -104
62 -158 75 -55 13 -166 22 -200 16z"/>
<path d="M13650 1854 c0 -17 8 -23 36 -27 68 -11 64 16 64 -479 0 -311 -3
-456 -11 -471 -15 -29 -50 -56 -71 -57 -13 0 -18 -8 -18 -30 l0 -30 155 0 155
0 0 30 c0 25 -4 30 -25 30 -47 0 -89 29 -108 73 -15 37 -17 79 -17 322 l0 280
53 -55 c28 -30 72 -78 97 -105 77 -86 234 -256 265 -289 17 -17 76 -80 130
-141 135 -149 129 -145 192 -145 l53 0 0 418 c0 229 5 457 10 506 10 95 21
116 71 136 19 8 29 20 29 34 0 21 -4 21 -155 21 -150 0 -156 -1 -153 -20 2
-14 17 -24 50 -35 92 -29 98 -49 98 -353 l0 -240 -61 64 c-34 35 -120 127
-193 204 -72 76 -164 173 -203 214 -40 41 -73 76 -73 78 0 2 -20 22 -44 45
l-44 41 -141 1 c-137 1 -141 0 -141 -20z"/>
<path d="M13020 1851 c0 -15 10 -21 40 -26 74 -13 70 17 70 -504 0 -522 4
-496 -70 -503 -27 -2 -36 -8 -38 -25 -2 -16 3 -24 20 -28 13 -3 136 -4 273 -3
l250 3 3 28 c3 26 1 27 -38 27 -70 0 -70 2 -70 498 0 287 4 440 11 461 9 26
19 33 55 42 32 8 44 16 44 30 0 18 -12 19 -275 19 -264 0 -275 -1 -275 -19z"/>
<path d="M15730 1852 c0 -13 13 -21 43 -29 31 -9 47 -20 55 -38 18 -38 17
-900 -1 -935 -9 -19 -23 -26 -52 -30 -32 -4 -41 -10 -43 -27 -2 -16 3 -24 20
-28 13 -3 136 -4 273 -3 l250 3 3 28 c3 25 1 27 -32 27 -69 0 -66 -22 -64 508
l3 477 47 15 c33 10 48 20 48 33 0 16 -20 17 -275 17 -258 0 -275 -1 -275 -18z"/>
<path d="M17515 1860 c-10 -16 3 -27 40 -34 68 -13 65 13 65 -505 0 -441 -1
-469 -18 -484 -10 -10 -32 -17 -49 -17 -34 0 -51 -24 -32 -46 10 -12 60 -14
273 -12 l261 3 3 27 c3 25 0 27 -40 30 -40 3 -43 5 -54 43 -8 25 -13 115 -13
238 l-1 197 165 0 165 0 0 -223 c0 -247 -2 -254 -60 -259 -30 -3 -35 -7 -35
-28 l0 -25 250 -3 c138 -1 260 0 273 3 17 4 22 12 20 28 -2 17 -11 23 -40 25
-20 2 -42 10 -50 19 -10 13 -14 105 -16 432 -2 229 -1 444 3 478 l6 62 50 12
c36 9 49 18 49 31 0 17 -16 18 -275 18 -266 0 -275 -1 -275 -20 0 -14 9 -21
35 -26 65 -12 65 -12 65 -255 l0 -219 -165 0 -165 0 0 186 c0 104 5 205 11
230 11 41 15 45 55 55 33 8 44 16 44 30 0 18 -12 19 -269 19 -169 0 -272 -4
-276 -10z"/>
<path d="M18793 1758 c4 -62 7 -157 7 -211 l0 -98 27 3 c22 2 29 10 36 38 29
114 89 229 145 273 12 10 28 24 35 31 6 7 31 17 55 23 l42 11 0 -463 c0 -476
-3 -515 -40 -535 -10 -6 -44 -10 -74 -10 -52 0 -56 -2 -56 -24 0 -13 7 -27 16
-30 24 -9 637 -7 652 3 8 5 12 17 10 27 -3 16 -15 20 -65 24 -47 4 -68 11 -85
28 l-23 23 -3 478 -3 478 46 -10 c44 -10 104 -57 145 -113 28 -38 68 -134 89
-211 10 -37 15 -43 39 -43 l27 0 3 210 2 210 -516 0 -517 0 6 -112z"/>
</g>
</svg>
