<?xml version="1.0" standalone="no"?>
<!DOCTYPE svg PUBLIC "-//W3C//DTD SVG 20010904//EN"
 "http://www.w3.org/TR/2001/REC-SVG-20010904/DTD/svg10.dtd">
<svg version="1.0" xmlns="http://www.w3.org/2000/svg"
 width="1360px" height="515px" viewBox="0 0 1360.000000 515.000000"
 preserveAspectRatio="xMidYMid meet">

<g transform="translate(0.000000,515.000000) scale(0.100000,-0.100000)"
fill="#FFFFFF" stroke="none">
<path d="M3633 5080 c-38 -23 -60 -55 -69 -98 -4 -22 -14 -34 -28 -37 -55 -13
-2226 -415 -2240 -415 -8 0 -24 20 -36 48 -45 101 -146 171 -261 180 -136 9
-248 -53 -308 -171 -30 -58 -34 -76 -34 -140 0 -95 34 -173 105 -240 50 -47
50 -47 37 -80 -7 -17 -129 -282 -271 -587 l-257 -555 -54 -6 c-66 -7 -110 -36
-137 -89 -26 -51 -25 -93 2 -142 40 -71 124 -103 193 -73 l39 16 62 -63 c34
-35 465 -488 959 -1008 494 -520 927 -975 962 -1011 l64 -65 -27 -53 c-53
-101 -32 -217 52 -291 51 -44 93 -60 162 -60 181 0 295 186 214 350 l-20 41
1095 1024 1094 1024 46 -35 c319 -244 766 -77 849 316 52 248 -97 507 -342
596 -134 49 -275 42 -413 -22 -30 -13 -58 -21 -62 -17 -4 5 -273 330 -598 723
-567 688 -589 716 -575 737 24 38 27 103 7 143 -39 75 -139 104 -210 60z m123
-95 c19 -29 11 -60 -22 -81 -22 -15 -26 -15 -48 0 -33 21 -41 52 -22 81 11 17
26 25 46 25 20 0 35 -8 46 -25z m-187 -89 c-2 -2 -281 -170 -619 -374 l-615
-370 -500 119 c-275 65 -510 121 -522 124 -19 4 -23 12 -23 45 0 22 1 40 3 40
1 1 504 95 1117 210 1021 191 1172 218 1159 206z m15 -58 c-23 -38 -659 -811
-671 -815 -14 -6 -453 95 -466 107 -6 5 1125 719 1141 720 2 0 0 -6 -4 -12z
m87 -30 c13 -11 14 -68 11 -398 l-4 -385 -60 -18 c-48 -14 -71 -29 -110 -69
l-50 -51 -210 49 c-115 27 -214 52 -220 55 -12 7 601 828 618 829 5 0 17 -6
25 -12z m687 -728 l573 -740 -37 -48 c-21 -26 -42 -51 -46 -57 -5 -6 -177 75
-447 210 l-439 219 2 75 c1 65 -3 84 -28 135 -32 65 -86 110 -164 137 -41 14
-47 19 -46 42 0 15 1 191 2 391 2 391 -1 369 47 375 6 0 268 -332 583 -739z
m-3317 485 c92 -48 90 -193 -2 -241 -73 -37 -155 -10 -190 64 -57 117 74 238
192 177z m714 -340 c248 -64 458 -119 469 -123 14 -6 -82 -68 -419 -270 -241
-145 -442 -259 -446 -255 -4 4 -57 138 -117 297 l-110 290 50 44 c27 25 60 67
74 93 13 28 29 47 37 44 6 -2 215 -56 462 -120z m-752 -105 c14 -13 248 -602
244 -614 -6 -15 -907 -556 -926 -556 -8 0 -11 6 -7 18 4 9 127 277 274 594
l266 576 71 -5 c38 -3 74 -9 78 -13z m1595 -111 c130 -34 240 -64 244 -68 5
-4 -76 -110 -178 -236 l-187 -230 -53 3 c-74 5 -137 -26 -175 -86 -17 -27 -29
-60 -29 -79 0 -25 -6 -36 -22 -43 -27 -11 -630 -140 -656 -140 -24 0 -159 350
-140 362 7 4 218 136 468 292 250 157 463 285 473 285 9 1 124 -27 255 -60z
m570 -150 c285 -73 258 -61 265 -121 4 -29 5 -53 4 -55 -7 -7 -842 -303 -854
-303 -8 0 -13 6 -11 13 5 19 382 517 391 517 5 0 97 -23 205 -51z m609 4 c79
-52 66 -192 -22 -229 -44 -18 -69 -18 -111 2 -43 20 -74 71 -74 119 0 103 119
165 207 108z m-285 -273 c74 -97 215 -130 326 -74 28 14 63 39 77 56 l26 31
445 -219 c395 -195 444 -221 439 -239 -3 -11 -13 -54 -22 -95 -8 -41 -17 -77
-20 -80 -7 -8 -2297 -67 -2306 -60 -4 4 -11 47 -14 96 l-6 90 41 18 c74 33
122 106 122 183 l0 38 423 152 c232 84 425 151 428 150 4 -1 22 -22 41 -47z
m-2140 -320 c51 -126 65 -169 56 -170 -2 -1 -217 -47 -478 -104 -261 -57 -477
-101 -480 -98 -3 3 0 7 5 9 6 2 192 118 415 257 223 140 409 253 415 252 5 -1
35 -67 67 -146z m1124 86 c37 -37 43 -70 20 -115 -46 -88 -186 -54 -186 46 0
96 98 137 166 69z m2970 -126 c58 -28 118 -99 145 -169 54 -143 -15 -307 -161
-382 -67 -34 -176 -33 -251 2 -107 50 -171 144 -177 261 -5 88 17 153 74 217
94 105 241 133 370 71z m-3201 -36 c21 -40 58 -69 107 -86 18 -6 36 -16 40
-22 4 -6 8 -50 8 -97 l0 -87 -287 -7 c-159 -3 -334 -7 -391 -8 l-103 -2 -35
89 c-19 49 -33 94 -31 100 3 8 515 127 667 155 3 1 14 -15 25 -35z m-776 -211
c17 -43 31 -83 31 -90 0 -13 -120 -21 -475 -28 -137 -3 -311 -8 -385 -11 -74
-4 -132 -3 -128 1 5 5 872 198 919 204 4 1 21 -34 38 -76z m3317 -130 c15 -75
43 -139 85 -197 l31 -44 -73 -70 c-41 -38 -534 -499 -1097 -1024 l-1022 -955
-56 29 c-31 15 -65 28 -75 28 -11 0 -20 9 -23 22 -5 28 -107 2210 -103 2214 5
5 2078 62 2201 60 l119 -1 13 -62z m-4519 15 c13 -12 23 -32 23 -45 0 -30 -42
-73 -70 -73 -27 0 -70 43 -70 70 0 28 43 70 71 70 13 0 33 -10 46 -22z m2137
-20 c7 -22 107 -2220 102 -2225 -3 -3 -11 -3 -18 0 -12 4 -853 2205 -846 2212
2 2 143 8 313 13 467 13 445 13 449 0z m-429 -1120 c244 -603 446 -1106 450
-1117 4 -14 0 -23 -13 -30 -17 -9 -129 105 -959 977 -517 543 -977 1026 -1023
1075 l-82 87 12 33 c7 17 17 36 21 41 9 10 751 34 997 32 l154 -1 443 -1097z
m615 -1253 c16 -8 36 -25 44 -37 38 -53 5 -150 -56 -166 -62 -17 -118 14 -138
74 -16 46 11 102 60 126 43 22 53 22 90 3z"/>
<path d="M7070 3561 c0 -27 3 -28 53 -34 72 -7 103 -24 124 -66 17 -34 18 -92
21 -911 4 -1034 1 -1080 -81 -1234 -42 -80 -110 -126 -219 -150 -23 -5 -28
-12 -28 -36 0 -28 3 -30 38 -30 67 0 266 29 337 49 257 72 433 236 489 456 30
117 36 299 36 1048 0 750 3 820 35 847 7 6 44 17 81 23 71 14 104 38 74 57 -9
6 -204 10 -487 10 l-473 0 0 -29z"/>
<path d="M8140 3560 c0 -27 3 -30 33 -30 52 -1 109 -17 130 -38 10 -11 23 -39
27 -63 5 -24 10 -289 11 -589 2 -557 7 -668 34 -800 33 -162 121 -278 261
-346 265 -127 702 -120 912 15 60 38 129 110 165 171 14 25 37 85 52 135 46
160 55 292 55 820 0 610 2 620 126 676 54 25 64 33 64 54 l0 25 -270 0 -270 0
0 -28 c0 -26 4 -29 58 -40 132 -28 183 -74 207 -188 21 -100 21 -1019 0 -1149
-56 -344 -209 -487 -506 -473 -84 4 -108 9 -157 34 -71 37 -112 95 -138 196
-18 68 -19 121 -19 783 0 650 1 713 17 741 20 37 52 52 132 62 64 8 96 33 66
52 -9 6 -210 10 -502 10 l-488 0 0 -30z"/>
<path d="M10114 3575 c-11 -29 4 -42 56 -49 80 -11 99 -22 120 -68 19 -41 20
-74 20 -856 0 -865 1 -852 -47 -895 -13 -11 -45 -21 -84 -25 -60 -7 -64 -9
-67 -34 l-3 -28 812 0 811 0 -7 23 c-4 12 -9 180 -11 372 l-5 350 -26 0 c-24
0 -28 -6 -48 -81 -64 -233 -223 -468 -381 -564 -57 -34 -61 -35 -181 -39 -144
-4 -166 5 -183 69 -17 63 -9 1665 9 1708 17 42 52 59 135 68 64 7 66 7 66 35
l0 29 -490 0 c-427 0 -491 -2 -496 -15z"/>
<path d="M11895 3580 c-4 -6 -1 -113 5 -238 6 -125 8 -269 4 -319 l-7 -93 31
0 c26 0 33 5 38 28 39 176 89 283 177 378 121 130 246 183 450 191 101 5 127
3 127 -8 0 -7 -20 -56 -44 -108 -25 -53 -180 -395 -346 -761 -166 -366 -315
-694 -332 -730 -86 -187 -118 -262 -118 -280 0 -20 7 -20 746 -20 l746 0 -8
98 c-5 53 -9 215 -9 359 0 216 -3 264 -14 268 -19 7 -51 -23 -51 -48 0 -37
-32 -151 -60 -213 -60 -133 -192 -270 -320 -332 -99 -47 -168 -65 -282 -70
-65 -2 -118 -1 -118 3 0 4 31 76 69 159 38 83 151 331 251 551 100 220 193
425 207 455 247 542 313 693 313 714 l0 26 -724 0 c-480 0 -727 -3 -731 -10z"/>
</g>
</svg>
