<?xml version="1.0" standalone="no"?>
<!DOCTYPE svg PUBLIC "-//W3C//DTD SVG 20010904//EN"
 "http://www.w3.org/TR/2001/REC-SVG-20010904/DTD/svg10.dtd">
<svg version="1.0" xmlns="http://www.w3.org/2000/svg"
 width="740.000000pt" height="290.000000pt" viewBox="0 0 740.000000 290.000000"
 preserveAspectRatio="xMidYMid meet">

<g transform="translate(0.000000,290.000000) scale(0.100000,-0.100000)"
fill="#ffffff" stroke="none">
<path d="M2072 2850 c-12 -11 -25 -32 -28 -45 -3 -14 -10 -25 -15 -25 -5 0
-300 -54 -655 -120 -356 -67 -647 -120 -648 -118 -23 54 -47 84 -85 106 -124
73 -276 -15 -274 -158 1 -54 13 -82 58 -130 l32 -35 -156 -337 c-139 -300
-159 -338 -179 -338 -63 0 -114 -66 -93 -121 17 -45 45 -61 98 -57 l48 3 504
-530 c277 -292 542 -569 589 -616 83 -85 84 -87 68 -110 -22 -32 -21 -106 4
-146 55 -91 192 -81 243 17 19 37 17 101 -5 128 -9 10 -5 20 18 42 99 97 1221
1143 1231 1147 7 2 28 -7 47 -22 73 -56 186 -70 279 -35 247 93 267 437 32
557 -73 38 -166 43 -246 13 -51 -18 -63 -20 -74 -8 -6 7 -159 191 -338 409
l-326 397 6 50 c5 45 3 53 -20 76 -32 32 -84 35 -115 6z m76 -39 c18 -11 12
-41 -11 -55 -25 -15 -51 18 -36 45 10 20 26 24 47 10z m-118 -65 c-32 -29
-688 -416 -706 -416 -11 0 -147 31 -304 68 -275 66 -285 69 -285 92 0 24 5 25
650 146 358 67 652 123 655 123 2 1 -2 -5 -10 -13z m25 -25 c-30 -49 -381
-467 -394 -469 -14 -2 -259 53 -267 60 -2 3 655 415 664 417 2 1 1 -3 -3 -8z
m53 -242 l2 -225 -37 -13 c-21 -8 -50 -27 -64 -43 l-27 -28 -122 29 c-67 16
-123 31 -126 33 -7 8 350 478 361 475 6 -2 11 -88 13 -228z m394 -198 l328
-423 -22 -32 c-12 -17 -22 -32 -24 -34 -1 -2 -117 55 -259 125 -248 124 -256
129 -251 154 12 64 -49 163 -106 171 -23 3 -23 3 -26 223 -1 121 0 226 3 233
3 8 11 12 17 10 7 -3 160 -195 340 -427z m-1897 264 c34 -33 32 -70 -5 -107
-26 -25 -36 -29 -63 -24 -40 8 -67 39 -67 79 0 70 85 103 135 52z m406 -182
c142 -36 259 -69 259 -72 0 -8 -480 -296 -493 -296 -5 0 -37 76 -73 168 l-64
169 28 23 c15 13 34 35 41 49 8 14 21 26 29 26 8 0 131 -30 273 -67z m-471
-53 c27 0 30 -7 99 -177 56 -140 68 -180 59 -189 -25 -22 -521 -315 -526 -310
-3 3 66 159 153 346 117 252 162 339 172 335 8 -3 27 -5 43 -5z m955 -71 c72
-18 132 -33 134 -35 2 -2 -45 -64 -105 -138 -98 -122 -111 -134 -135 -129 -28
5 -77 -15 -99 -41 -7 -9 -15 -30 -19 -48 l-7 -32 -194 -42 c-107 -24 -198 -40
-201 -36 -16 18 -78 197 -71 204 28 28 540 337 552 333 8 -2 74 -19 145 -36z
m475 -155 l0 -31 -245 -88 c-135 -48 -248 -86 -251 -82 -3 3 45 72 106 155
l112 149 139 -36 139 -36 0 -31z m205 61 c14 -13 25 -36 25 -50 0 -36 -42 -75
-80 -75 -41 0 -70 31 -70 75 0 69 76 100 125 50z m-91 -201 c53 -9 103 3 139
35 l31 29 251 -125 c137 -69 251 -126 252 -127 2 -1 -3 -28 -9 -59 l-12 -57
-51 -1 c-27 0 -327 -8 -665 -18 -338 -10 -616 -17 -616 -17 -1 1 -4 26 -6 57
-4 53 -3 56 23 66 33 13 61 53 64 95 l2 31 244 88 243 87 38 -39 c23 -24 50
-40 72 -45z m-1315 -130 c18 -47 30 -89 25 -94 -10 -8 -535 -122 -541 -117 -3
4 468 297 477 297 3 0 20 -39 39 -86z m651 51 c6 -8 10 -29 8 -47 -2 -25 -9
-35 -31 -42 -46 -17 -85 20 -73 68 10 42 68 54 96 21z m1715 -78 c117 -66 112
-248 -8 -306 -178 -86 -343 129 -209 273 56 59 146 73 217 33z m-1839 -32 c19
-19 44 -35 54 -35 18 0 20 -7 20 -60 l0 -60 -112 0 c-62 0 -163 -3 -224 -7
l-111 -6 -22 58 c-12 32 -20 59 -19 60 3 3 348 81 371 84 4 0 23 -15 43 -34z
m-458 -114 l20 -49 -161 -6 c-297 -11 -422 -13 -407 -8 23 8 493 110 511 111
10 1 24 -17 37 -48z m1907 -63 c4 -18 19 -55 34 -83 14 -27 27 -53 29 -57 2
-4 -1078 -1021 -1235 -1161 -21 -19 -23 -19 -67 -2 -35 13 -46 23 -46 39 0 11
-13 300 -30 640 -16 341 -29 621 -27 622 3 3 993 31 1174 33 l161 1 7 -32z
m-2597 -26 c-2 -23 -8 -27 -33 -27 -24 0 -31 5 -33 24 -5 32 23 54 50 40 13
-7 18 -19 16 -37z m1258 -617 c17 -352 27 -644 23 -649 -5 -5 -13 4 -19 20
-207 540 -470 1240 -470 1250 0 11 36 14 168 17 92 2 190 3 217 2 l50 0 31
-640z m-275 -20 c173 -428 255 -643 249 -649 -7 -7 -23 3 -49 29 -21 22 -262
276 -536 565 -274 289 -522 550 -552 581 -49 51 -53 58 -44 82 l10 27 178 3
c98 1 247 3 332 2 l153 0 259 -640z m369 -725 c27 -27 25 -56 -5 -85 -30 -31
-52 -31 -82 -3 -29 27 -29 55 -1 85 26 28 61 30 88 3z"/>
<path d="M6225 2380 c-27 -5 -119 -9 -202 -9 -140 -1 -153 -3 -153 -19 0 -11
11 -21 32 -27 21 -7 40 -23 53 -45 19 -34 20 -53 23 -610 4 -651 1 -712 -34
-746 -12 -13 -35 -24 -49 -24 -18 0 -25 -5 -25 -20 0 -20 7 -20 285 -20 278 0
285 0 285 20 0 15 -7 20 -24 20 -14 0 -38 11 -53 24 l-28 24 -3 721 -2 721
-28 -1 c-15 -1 -49 -5 -77 -9z"/>
<path d="M3880 2228 c0 -10 8 -18 18 -18 45 0 93 -22 107 -50 22 -43 22 -1300
0 -1405 -28 -131 -76 -192 -172 -218 -32 -8 -43 -16 -43 -31 0 -18 6 -19 98
-13 261 16 438 131 505 328 21 62 21 83 27 694 4 481 8 635 18 652 11 21 65
43 105 43 9 0 17 8 17 18 0 16 -23 17 -340 17 -317 0 -340 -1 -340 -17z"/>
<path d="M5025 1888 c-27 -5 -128 -10 -223 -11 -166 -2 -173 -3 -170 -22 2
-11 12 -21 23 -23 26 -5 55 -31 68 -62 7 -16 13 -162 17 -395 7 -407 8 -418
69 -481 43 -43 111 -64 212 -64 113 0 197 29 260 89 l49 47 0 -66 0 -67 43 9
c23 4 129 11 235 15 162 5 192 8 190 21 -2 8 -19 20 -38 26 -22 7 -41 24 -55
46 -19 34 -20 52 -23 493 -3 391 -5 458 -17 453 -31 -11 -281 -28 -361 -24
-80 4 -85 3 -82 -15 2 -12 16 -24 38 -31 63 -20 65 -28 68 -431 2 -346 2 -361
-18 -393 -37 -61 -118 -90 -172 -61 -46 24 -48 50 -48 519 0 242 -3 439 -7
439 -5 -1 -30 -6 -58 -11z"/>
<path d="M6554 1857 c3 -12 6 -104 6 -204 0 -173 1 -183 19 -183 15 0 20 10
25 48 19 133 87 247 176 292 30 16 135 40 174 40 15 0 -2 -42 -213 -520 l-210
-475 396 -3 c218 -1 398 -1 400 2 2 2 1 94 -3 205 -6 180 -9 201 -24 201 -13
0 -19 -12 -24 -55 -21 -177 -137 -299 -305 -319 -49 -6 -53 -5 -49 11 3 10
101 233 217 495 116 263 211 480 211 482 0 3 -180 4 -401 4 l-401 0 6 -21z"/>
</g>
</svg>
