<?xml version="1.0" standalone="no"?>
<!DOCTYPE svg PUBLIC "-//W3C//DTD SVG 20010904//EN"
 "http://www.w3.org/TR/2001/REC-SVG-20010904/DTD/svg10.dtd">
<svg version="1.0" xmlns="http://www.w3.org/2000/svg"
 width="2560.000000pt" height="566.000000pt" viewBox="0 0 2560.000000 566.000000"
 preserveAspectRatio="xMidYMid meet">

<g transform="translate(0.000000,566.000000) scale(0.100000,-0.100000)"
fill="#FFFFFF" stroke="none">
<path d="M4094 5606 c-45 -20 -83 -65 -98 -116 l-13 -45 -1269 -237 c-698
-130 -1269 -236 -1270 -235 -54 123 -108 185 -204 230 -55 26 -76 31 -145 31
-66 0 -90 -4 -137 -26 -80 -37 -149 -105 -184 -181 -25 -53 -29 -75 -29 -147
0 -76 3 -92 33 -152 22 -46 51 -83 88 -116 l56 -50 -306 -658 -305 -659 -50
-2 c-67 -3 -117 -28 -147 -73 -48 -72 -44 -157 9 -217 54 -61 129 -79 203 -48
l35 14 98 -102 c54 -56 568 -596 1143 -1200 l1044 -1097 -29 -60 c-93 -187 34
-393 240 -392 110 1 191 52 246 156 31 59 30 163 -3 230 -15 32 -20 53 -14 61
14 20 2424 2270 2434 2273 6 2 29 -13 52 -33 93 -79 228 -125 368 -125 169 0
294 52 416 174 125 125 178 252 176 427 -2 259 -191 497 -448 563 -129 33
-287 16 -409 -44 -46 -22 -63 -26 -71 -17 -11 12 -1191 1444 -1277 1550 l-47
57 20 33 c25 40 26 106 3 154 -33 70 -140 111 -209 79z m109 -114 c17 -15 23
-58 9 -79 -4 -6 -19 -16 -32 -21 -54 -20 -101 27 -81 81 17 45 63 53 104 19z
m-218 -111 c-24 -24 -1359 -821 -1374 -821 -10 0 -273 61 -585 135 -312 74
-569 135 -571 135 -5 0 -7 90 -2 91 46 11 2500 467 2517 468 15 1 20 -3 15 -8z
m28 -63 c-4 -7 -173 -217 -376 -466 -312 -382 -373 -453 -390 -448 -12 3 -129
31 -262 62 -132 31 -243 60 -247 63 -7 6 1257 799 1275 800 5 1 5 -5 0 -11z
m95 -24 l22 -6 0 -297 c0 -163 -3 -360 -7 -439 l-6 -142 -26 -6 c-60 -12 -125
-51 -167 -98 l-45 -49 -97 22 c-53 12 -166 38 -250 59 l-153 37 347 463 c190
254 349 462 353 462 3 0 16 -3 29 -6z m774 -823 c351 -454 638 -826 638 -827
0 -1 -15 -20 -32 -41 -18 -21 -40 -49 -48 -62 l-15 -23 -495 247 c-383 190
-494 250 -493 263 8 54 3 138 -12 181 -29 88 -111 163 -205 187 l-45 11 0 77
c3 744 5 804 23 809 9 3 23 4 31 3 8 0 302 -372 653 -825z m-3708 541 c68 -39
95 -133 59 -202 -50 -96 -195 -110 -262 -24 -62 79 -24 204 74 239 44 16 85
12 129 -13z m804 -379 c292 -75 532 -140 532 -143 -1 -6 -967 -585 -977 -585
-6 0 -235 590 -249 641 -4 16 9 36 59 85 35 35 70 81 77 102 8 20 16 37 20 37
3 1 245 -61 538 -137z m-881 -108 c19 -2 36 -5 38 -7 8 -9 278 -688 274 -691
-22 -19 -1030 -617 -1039 -617 -8 0 -10 8 -7 21 3 11 140 310 304 665 l298
645 49 -7 c27 -3 64 -8 83 -9z m1809 -129 c143 -37 267 -70 276 -74 15 -6 -15
-47 -173 -242 -105 -129 -200 -246 -210 -259 -17 -22 -26 -24 -87 -22 -53 2
-76 -3 -111 -21 -60 -32 -103 -94 -109 -157 -2 -28 -5 -51 -6 -51 -1 0 -168
-36 -371 -80 -203 -44 -377 -80 -386 -80 -11 0 -35 52 -87 190 -40 104 -72
196 -72 202 0 16 1051 669 1066 664 6 -3 128 -34 270 -70z m688 -181 c137 -36
251 -65 253 -65 2 0 3 -28 1 -62 l-3 -62 -473 -169 c-330 -118 -476 -167 -484
-159 -7 7 14 42 68 114 286 379 357 468 372 468 9 0 129 -29 266 -65z m638 14
c87 -62 75 -203 -22 -251 -128 -65 -259 74 -192 202 39 74 144 98 214 49z
m-347 -268 c3 -11 30 -42 59 -69 123 -112 290 -108 412 9 l40 40 495 -246
c284 -141 493 -250 492 -258 -1 -6 -9 -37 -17 -67 -9 -30 -16 -72 -16 -92 0
-20 -4 -40 -10 -43 -13 -8 -2581 -78 -2589 -70 -3 4 -7 52 -9 108 l-4 102 53
25 c76 36 112 90 117 175 l4 64 42 16 c157 59 903 324 913 325 6 0 14 -9 18
-19z m-2360 -404 c37 -92 65 -170 61 -174 -8 -8 -1057 -234 -1069 -230 -5 1
202 134 460 294 257 160 471 288 474 285 4 -4 37 -83 74 -175z m1251 109 c92
-92 -11 -229 -131 -174 -33 15 -55 56 -55 104 0 54 53 104 110 104 34 0 48 -6
76 -34z m3305 -138 c72 -33 134 -94 168 -167 22 -48 26 -69 26 -146 0 -83 -3
-95 -34 -153 -62 -114 -155 -173 -286 -180 -110 -6 -179 21 -256 97 -180 181
-107 489 134 567 67 22 181 13 248 -18z m-3571 -32 c15 -41 73 -90 125 -107
l50 -15 6 -104 c3 -58 5 -106 4 -108 -3 -3 -540 -20 -744 -23 l-134 -2 -40
107 c-22 59 -37 109 -35 112 6 5 712 161 741 163 10 0 21 -9 27 -23z m-856
-262 c21 -52 37 -97 34 -99 -5 -5 -1110 -36 -1115 -31 -3 2 19 9 49 15 29 7
258 56 508 110 250 55 462 100 471 100 11 1 27 -28 53 -95z m3702 -119 c18
-89 49 -165 94 -228 l39 -56 -1226 -1145 -1226 -1145 -41 24 c-23 13 -60 28
-83 34 -37 10 -43 16 -47 44 -7 45 -118 2458 -114 2463 5 4 2420 72 2517 70
l74 -1 13 -60z m-5048 5 c47 -44 12 -130 -52 -130 -65 0 -97 71 -55 124 26 33
75 35 107 6z m2386 -19 c3 -4 30 -534 60 -1177 30 -643 57 -1202 60 -1242 4
-58 2 -74 -10 -79 -8 -3 -17 -3 -21 0 -13 14 -941 2473 -935 2479 6 5 313 16
769 26 39 1 74 -2 77 -7z m-921 -158 c30 -76 256 -635 502 -1243 245 -608 447
-1109 448 -1113 1 -5 -7 -15 -19 -23 -20 -14 -72 40 -1160 1182 -626 658
-1140 1200 -1142 1204 -1 3 7 27 18 53 l21 47 127 1 c70 1 311 7 537 13 226 7
456 14 511 14 l102 2 55 -137z m1153 -2511 c71 -52 61 -167 -17 -208 -61 -31
-135 -9 -163 50 -21 44 -20 73 2 115 36 67 118 87 178 43z"/>
<path d="M11675 4234 c-128 -22 -386 -37 -552 -32 l-164 5 3 -30 c3 -27 8 -32
41 -39 66 -14 93 -34 118 -90 l24 -53 3 -1044 c2 -757 -1 -1060 -9 -1100 -16
-76 -57 -117 -128 -127 -51 -7 -52 -7 -49 -37 l3 -31 482 0 483 -1 0 31 c0 28
-4 32 -35 37 -52 9 -100 42 -121 85 -18 35 -19 94 -24 1237 l-5 1200 -70 -11z"/>
<path d="M19780 4240 c-196 -21 -290 -111 -290 -280 0 -183 119 -280 343 -281
155 -1 236 28 308 109 154 171 42 424 -199 448 -31 3 -66 6 -77 8 -11 1 -49 0
-85 -4z"/>
<path d="M23035 4235 c-122 -23 -382 -38 -547 -32 l-158 6 0 -35 c0 -29 4 -34
23 -34 12 0 41 -9 65 -20 36 -16 47 -29 70 -77 l27 -58 3 -1034 c2 -727 -1
-1051 -8 -1088 -18 -83 -83 -143 -156 -143 -20 0 -24 -5 -24 -32 l0 -33 467 1
468 1 3 30 c3 28 0 31 -35 36 -48 8 -91 51 -104 103 -4 22 -9 310 -9 642 0
658 -1 643 58 705 35 37 71 55 130 67 59 11 128 -3 160 -33 51 -48 53 -74 50
-744 -3 -546 -5 -622 -19 -654 -19 -42 -62 -78 -101 -86 -23 -5 -28 -11 -28
-37 l0 -31 460 0 460 0 0 31 c0 28 -4 32 -35 37 -52 9 -100 42 -121 85 -18 34
-19 79 -25 637 -5 530 -8 609 -23 675 -32 131 -78 197 -169 244 -152 76 -441
70 -611 -15 -63 -30 -124 -81 -163 -134 l-22 -30 -1 533 c0 292 -3 531 -7 531
-5 -1 -39 -7 -78 -14z"/>
<path d="M7660 3963 c0 -30 3 -33 33 -33 97 -1 166 -41 189 -109 9 -27 13
-286 16 -986 3 -970 -3 -1211 -33 -1361 -20 -94 -69 -205 -114 -256 -37 -42
-150 -103 -210 -113 -39 -6 -41 -9 -41 -41 l0 -34 73 0 c154 0 346 36 479 90
225 92 395 262 463 464 46 140 48 184 54 1236 6 911 7 998 23 1033 20 45 57
63 149 74 62 8 64 9 67 38 l3 30 -576 0 -575 0 0 -32z"/>
<path d="M14410 3964 c0 -31 0 -31 66 -37 82 -8 123 -31 149 -82 20 -39 20
-60 20 -1020 0 -960 0 -981 -20 -1020 -25 -49 -73 -75 -155 -82 -59 -6 -60 -6
-60 -37 l0 -31 575 0 575 0 0 31 c0 31 -1 31 -60 37 -94 10 -127 28 -153 84
l-22 48 -3 915 c-3 947 0 1051 36 1100 22 30 100 59 160 60 41 0 42 1 42 33
l0 32 -575 0 -575 0 0 -31z"/>
<path d="M25092 3867 c-104 -48 -249 -85 -361 -93 -47 -3 -101 -7 -118 -10
l-33 -5 0 -194 0 -195 -126 0 -125 0 3 -27 3 -28 122 -3 122 -3 3 -682 c4
-614 6 -688 21 -742 42 -140 139 -230 287 -265 73 -18 222 -18 290 -1 118 29
233 109 301 207 l28 41 -24 23 -25 23 -20 -26 c-28 -35 -116 -77 -163 -77 -29
0 -46 7 -68 29 l-29 29 0 721 0 721 160 0 160 0 0 30 0 29 -157 3 -158 3 -5
266 -5 265 -83 -39z"/>
<path d="M21938 3441 c-73 -24 -149 -72 -192 -122 l-33 -39 -56 33 c-178 107
-514 138 -782 72 -96 -24 -223 -91 -281 -150 -88 -88 -124 -186 -124 -340 0
-162 42 -268 145 -363 71 -66 185 -122 298 -147 l77 -17 -87 -52 c-114 -67
-195 -143 -230 -214 -24 -50 -28 -69 -28 -147 0 -81 3 -95 30 -144 50 -90 147
-148 287 -171 35 -5 140 -10 234 -10 181 0 266 -11 324 -40 43 -22 85 -66 99
-103 16 -41 13 -142 -4 -184 -38 -91 -136 -168 -255 -200 -88 -23 -291 -23
-377 0 -241 64 -318 233 -195 428 29 44 29 47 12 69 l-17 23 -74 -23 c-201
-61 -308 -157 -309 -278 0 -130 121 -217 376 -269 128 -26 577 -26 709 0 277
55 462 153 577 304 74 98 92 157 93 293 0 108 -2 119 -31 181 -49 104 -123
167 -252 215 -135 51 -170 56 -494 63 -291 6 -308 7 -335 27 -54 41 -56 128
-3 188 l30 33 152 6 c243 8 397 61 521 177 106 99 147 198 147 356 0 114 -24
198 -80 278 l-40 57 20 29 c26 36 82 81 137 109 23 11 44 21 47 21 2 0 -5 -27
-15 -61 -38 -122 -13 -222 66 -266 147 -82 304 72 254 250 -33 121 -185 178
-341 128z m-714 -96 c71 -47 109 -313 87 -604 -13 -165 -33 -242 -76 -287 -61
-65 -127 -30 -159 85 -35 125 -43 455 -15 641 11 73 41 146 67 166 23 18 68
17 96 -1z"/>
<path d="M16925 3413 c-159 -22 -297 -98 -377 -207 l-28 -39 0 122 c0 121 0
121 -22 116 -123 -28 -458 -49 -630 -40 l-128 7 0 -35 c0 -33 2 -35 40 -40 88
-11 124 -65 141 -209 7 -60 9 -293 7 -663 -3 -563 -3 -571 -25 -618 -17 -38
-31 -52 -65 -67 -24 -11 -55 -20 -70 -20 -25 0 -28 -4 -28 -32 l0 -33 470 0
470 0 0 31 c0 29 -3 32 -38 38 -22 3 -51 15 -65 26 -51 40 -52 57 -52 715 l0
610 22 42 c78 145 296 176 354 50 18 -40 19 -75 19 -687 0 -618 -1 -647 -20
-688 -20 -43 -63 -72 -110 -72 -16 0 -20 -6 -20 -32 l0 -33 467 1 468 1 3 30
c3 29 1 31 -46 37 -59 8 -98 36 -121 85 -14 32 -17 114 -22 656 -5 524 -8 628
-21 672 -51 168 -140 243 -320 273 -61 10 -192 11 -253 3z"/>
<path d="M18338 3400 c-363 -76 -538 -378 -394 -677 53 -109 115 -181 325
-377 257 -240 304 -303 317 -434 15 -136 -61 -221 -198 -222 -138 0 -252 86
-332 252 -43 90 -77 201 -91 301 -6 46 -7 47 -41 47 l-34 0 0 -247 c0 -137 -3
-285 -7 -330 l-6 -83 31 0 c27 0 34 6 52 47 25 57 33 63 89 63 33 0 70 -12
140 -46 130 -63 160 -73 265 -84 232 -27 472 47 617 190 115 114 162 247 140
398 -27 178 -118 290 -450 556 -164 132 -262 237 -284 305 -35 108 -12 198 64
248 39 25 51 28 128 27 69 0 96 -5 134 -23 71 -35 132 -101 177 -194 37 -77
80 -224 80 -274 0 -19 6 -23 30 -23 17 0 32 6 34 13 3 6 7 141 10 300 l7 287
-30 0 c-27 0 -31 -5 -41 -40 -11 -41 -41 -70 -73 -70 -10 0 -42 11 -71 24
-178 81 -399 106 -588 66z"/>
<path d="M9545 3394 c-131 -20 -431 -36 -557 -29 l-118 7 0 -36 c0 -32 3 -36
26 -36 36 0 90 -27 107 -53 40 -63 41 -73 48 -682 7 -637 9 -666 62 -772 30
-58 92 -117 150 -142 164 -70 416 -61 582 22 57 27 136 91 165 132 14 19 28
35 33 35 4 0 7 -50 7 -111 l0 -112 48 7 c26 4 83 12 127 18 44 6 198 12 342
12 l263 1 0 31 c0 29 -3 32 -42 38 -51 8 -110 64 -129 121 -11 32 -14 201 -17
803 -2 716 -4 763 -20 758 -60 -19 -313 -39 -519 -40 l-233 -1 0 -31 c0 -29 3
-32 42 -37 59 -8 103 -55 123 -132 13 -50 15 -147 15 -620 0 -345 -4 -574 -10
-596 -14 -49 -80 -122 -133 -148 -90 -44 -195 -21 -234 51 -17 31 -18 83 -21
796 -2 592 -5 762 -15 761 -7 -1 -48 -8 -92 -15z"/>
<path d="M20060 3394 c-122 -21 -415 -37 -552 -29 l-128 6 0 -34 c0 -33 2 -35
40 -40 78 -10 116 -52 137 -151 17 -80 19 -1209 2 -1286 -17 -80 -83 -140
-155 -140 -20 0 -24 -5 -24 -32 l0 -33 482 1 483 1 3 31 c3 29 0 32 -23 32
-65 0 -126 48 -144 115 -7 27 -11 285 -11 808 0 724 -1 767 -17 766 -10 -1
-52 -7 -93 -15z"/>
<path d="M13245 3378 c-110 -5 -407 -7 -660 -5 l-460 5 3 -332 c2 -182 5 -337
7 -343 3 -7 18 -13 34 -13 28 0 29 3 36 53 22 176 82 329 158 409 101 104 214
156 365 165 l93 6 -11 -24 c-353 -796 -727 -1655 -722 -1660 4 -3 106 -1 227
4 121 4 422 6 669 4 l449 -5 -7 96 c-3 54 -6 208 -6 345 l0 247 -35 0 c-29 0
-35 -4 -35 -21 0 -63 -45 -231 -82 -309 -69 -142 -201 -247 -359 -285 -75 -17
-169 -20 -169 -4 0 6 164 383 365 839 201 455 365 830 365 834 0 3 -6 5 -12 4
-7 0 -103 -5 -213 -10z"/>
</g>
</svg>
