<?xml version="1.0" standalone="no"?>
<!DOCTYPE svg PUBLIC "-//W3C//DTD SVG 20010904//EN"
 "http://www.w3.org/TR/2001/REC-SVG-20010904/DTD/svg10.dtd">
<svg version="1.0" xmlns="http://www.w3.org/2000/svg"
 width="2544.000000pt" height="566.000000pt" viewBox="0 0 2544.000000 566.000000"
 preserveAspectRatio="xMidYMid meet">

<g transform="translate(0.000000,566.000000) scale(0.100000,-0.100000)"
fill="#FFFFFF" stroke="none">
<path d="M4115 5111 c-35 -20 -61 -56 -71 -95 -3 -14 -9 -28 -13 -30 -3 -2
-469 -90 -1036 -195 -566 -106 -1036 -194 -1042 -196 -8 -3 -24 17 -38 45 -30
60 -81 112 -138 142 -62 33 -194 33 -257 0 -128 -67 -190 -199 -156 -333 18
-70 63 -140 106 -166 17 -9 30 -22 30 -27 0 -5 -113 -254 -252 -553 l-251
-543 -46 0 c-151 0 -196 -203 -61 -273 34 -18 83 -18 135 -2 17 5 131 -110
665 -672 355 -372 779 -818 943 -990 l299 -313 -26 -52 c-45 -89 -31 -181 37
-252 139 -145 381 -50 382 149 0 39 -7 76 -19 103 l-20 43 30 28 c16 16 450
421 964 901 514 480 956 893 981 917 l46 45 44 -34 c106 -80 255 -119 379 -98
211 36 377 203 410 414 37 236 -118 473 -354 541 -43 13 -85 16 -160 13 -89
-3 -109 -8 -170 -36 -67 -31 -70 -32 -86 -15 -10 10 -250 302 -535 648 -285
347 -525 638 -533 648 -14 15 -13 23 3 70 17 52 17 54 -3 99 -34 77 -122 109
-187 69z m105 -90 c17 -32 11 -60 -15 -77 -23 -15 -27 -15 -50 0 -27 18 -34
63 -13 84 19 19 66 15 78 -7z m-190 -94 c-8 -8 -264 -164 -569 -347 l-554
-333 -481 115 -481 114 -3 37 c-2 20 -2 37 0 38 2 0 467 87 1033 194 567 106
1039 193 1050 194 17 1 17 -1 5 -12z m28 -54 c-9 -10 -147 -180 -308 -378
-161 -198 -295 -363 -299 -368 -6 -6 -423 87 -444 100 -8 5 1040 661 1057 662
5 1 2 -7 -6 -16z m98 -24 c3 -5 2 -169 -2 -364 l-7 -355 -26 -7 c-48 -11 -97
-41 -134 -82 l-37 -41 -202 48 c-112 27 -203 52 -203 56 0 4 128 177 284 385
226 301 288 377 303 373 10 -2 21 -8 24 -13z m625 -672 l526 -681 -40 -51
c-22 -27 -42 -50 -46 -50 -3 0 -187 90 -407 200 l-401 200 1 75 c0 59 -4 84
-21 115 -31 59 -85 105 -145 126 l-53 18 4 358 c2 197 6 361 8 366 2 4 14 7
26 6 17 0 141 -155 548 -682z m-3061 444 c59 -41 72 -122 29 -182 -42 -60
-138 -64 -193 -10 -27 27 -31 38 -31 85 0 44 5 60 25 81 51 55 114 65 170 26z
m650 -306 c227 -59 421 -110 432 -114 16 -6 -67 -59 -386 -251 -224 -133 -408
-241 -410 -239 -5 5 -196 504 -203 532 -4 12 9 30 40 57 25 22 55 61 67 86 14
27 27 43 35 40 7 -2 198 -52 425 -111z m-736 -93 l48 -7 113 -280 c88 -216
111 -283 102 -292 -12 -12 -845 -513 -853 -513 -2 0 -4 6 -4 13 0 10 359 792
492 1074 8 16 17 21 32 17 12 -3 43 -8 70 -12z m1522 -109 c123 -32 224 -61
224 -65 0 -4 -77 -103 -172 -219 -170 -209 -172 -211 -205 -204 -41 7 -102 -8
-137 -36 -32 -25 -66 -89 -66 -123 0 -14 -4 -27 -9 -30 -22 -14 -624 -137
-631 -130 -9 10 -120 305 -120 320 0 13 851 542 874 543 10 1 119 -25 242 -56z
m559 -146 l200 -53 7 -49 c4 -27 6 -50 5 -51 -10 -9 -791 -283 -795 -279 -10
9 13 42 178 263 119 159 171 221 185 221 11 0 110 -23 220 -52z m515 18 c16
-9 36 -29 45 -45 31 -60 10 -137 -45 -165 -110 -57 -222 55 -165 165 29 55
105 76 165 45z m-258 -253 c15 -21 48 -50 79 -67 98 -54 217 -36 296 45 l30
31 404 -201 c222 -111 407 -204 411 -206 4 -3 1 -21 -6 -42 -8 -21 -17 -61
-21 -90 -7 -50 -8 -52 -38 -52 -18 -1 -498 -14 -1067 -29 -569 -16 -1038 -26
-1042 -23 -3 4 -8 45 -9 91 l-3 83 38 19 c21 10 45 24 53 30 25 21 47 72 53
123 l5 49 380 138 c209 75 387 138 396 138 9 1 28 -16 41 -37z m-1970 -308
c31 -76 54 -142 50 -145 -10 -9 -861 -191 -873 -187 -13 4 742 477 756 474 6
-1 36 -65 67 -142z m1035 92 c61 -53 21 -156 -62 -156 -21 0 -44 9 -62 24 -61
53 -21 156 62 156 21 0 44 -9 62 -24z m2736 -117 c124 -62 185 -191 153 -319
-55 -212 -295 -288 -463 -146 -70 59 -109 190 -84 282 45 168 241 259 394 183z
m-2944 -44 c22 -39 75 -75 107 -75 24 0 34 -36 34 -131 l0 -57 -247 -6 c-137
-4 -300 -8 -363 -9 l-114 -2 -34 88 c-19 48 -32 90 -30 93 6 6 576 131 605
133 14 1 28 -10 42 -34z m-717 -204 c16 -40 27 -75 25 -78 -7 -7 -891 -30
-900 -23 -9 8 780 179 817 177 26 -2 31 -9 58 -76z m3053 -68 c16 -76 50 -163
80 -210 l35 -52 -988 -922 c-543 -507 -998 -932 -1012 -945 l-26 -24 -48 25
c-27 14 -57 25 -67 25 -10 0 -20 3 -23 8 -7 12 -101 2050 -94 2057 4 5 1666
56 2070 64 66 1 68 0 73 -26z m-4166 -29 c27 -34 26 -50 -4 -79 -29 -30 -58
-32 -85 -5 -39 39 -11 110 44 110 15 0 33 -11 45 -26z m1975 -36 c3 -18 23
-436 46 -928 22 -492 43 -944 47 -1004 6 -99 5 -108 -11 -105 -13 3 -113 257
-397 1004 -209 550 -382 1010 -385 1023 -5 19 -2 22 27 23 98 4 468 16 561 17
l107 2 5 -32z m-394 -1023 c357 -882 415 -1032 403 -1045 -9 -10 -18 -12 -28
-5 -26 18 -1886 1978 -1882 1984 2 3 9 21 16 39 l13 32 81 1 c45 1 264 7 487
14 223 7 425 12 449 11 l44 -1 417 -1030z m563 -1146 c63 -32 76 -107 29 -160
-24 -26 -36 -32 -72 -32 -36 0 -48 6 -72 32 -34 39 -37 87 -7 125 34 43 80 56
122 35z"/>
<path d="M17005 3733 c-215 -30 -398 -140 -461 -277 -54 -118 -51 -275 7 -394
55 -112 143 -194 384 -358 305 -206 388 -300 402 -454 11 -116 -33 -197 -135
-247 -53 -26 -66 -28 -172 -28 -102 1 -121 4 -170 26 -73 34 -116 72 -161 142
-69 106 -116 259 -134 435 -7 59 -8 62 -34 62 l-28 0 -6 -362 c-4 -207 -3
-366 2 -371 17 -17 49 3 56 36 9 43 32 77 52 77 9 0 50 -16 91 -35 41 -20 113
-48 161 -62 80 -25 100 -27 276 -27 168 -1 200 2 280 23 174 45 317 137 381
247 58 99 72 260 32 380 -48 148 -141 240 -454 454 -93 63 -199 139 -236 169
-114 91 -168 194 -155 301 13 109 78 175 198 200 166 36 332 -66 429 -263 38
-79 80 -215 80 -263 0 -13 8 -27 18 -32 38 -20 42 -7 43 156 1 87 4 220 8 297
6 115 4 142 -7 152 -20 16 -52 -1 -52 -28 0 -34 -29 -79 -51 -79 -11 0 -46 14
-79 30 -147 74 -258 100 -420 98 -63 0 -128 -3 -145 -5z"/>
<path d="M19855 3725 c-350 -65 -606 -258 -727 -549 -46 -111 -68 -232 -68
-377 0 -356 114 -601 353 -757 143 -94 311 -139 542 -148 139 -5 157 -4 248
20 54 14 155 50 224 81 214 95 247 96 277 9 9 -26 16 -58 16 -70 0 -22 28 -41
41 -27 4 4 9 154 12 333 2 221 8 335 16 356 11 30 46 54 76 54 9 0 15 10 15
25 l0 25 -445 0 -445 0 0 -24 c0 -22 5 -24 72 -30 88 -8 125 -29 158 -87 25
-44 25 -47 25 -284 0 -213 -2 -244 -18 -268 -30 -46 -73 -62 -162 -61 -99 0
-160 28 -229 105 -117 130 -169 325 -182 674 -9 242 28 488 96 634 91 193 214
289 383 299 84 5 193 -16 258 -48 61 -32 138 -99 174 -153 51 -77 70 -139 100
-329 5 -34 9 -38 35 -38 l30 0 2 275 c1 151 2 294 3 317 0 32 -4 44 -16 46
-24 4 -49 -25 -49 -59 0 -16 -7 -47 -16 -69 -21 -52 -49 -53 -117 -4 -64 46
-174 98 -252 120 -85 23 -325 28 -430 9z"/>
<path d="M6933 3713 c-11 -27 6 -40 58 -45 70 -7 105 -43 114 -120 3 -29 5
-426 3 -883 -5 -894 -4 -888 -58 -1014 -28 -63 -91 -122 -156 -145 -90 -32
-94 -35 -94 -57 0 -22 2 -22 118 -16 339 18 589 172 671 414 37 109 41 204 41
937 0 466 4 731 11 772 14 80 36 102 115 112 51 6 59 10 62 30 2 12 0 22 -5
22 -489 7 -876 3 -880 -7z"/>
<path d="M8357 3722 l-448 -2 3 -23 c2 -18 11 -23 54 -28 60 -8 89 -22 106
-52 10 -17 14 -160 19 -602 5 -473 9 -596 23 -667 37 -199 108 -300 264 -378
117 -58 196 -73 392 -74 199 -1 267 10 377 60 143 64 231 183 274 369 20 83
22 133 29 625 4 294 12 551 17 570 23 82 55 118 131 144 29 10 37 18 37 37 l0
24 -250 0 -250 0 0 -24 c0 -22 7 -26 60 -38 119 -27 164 -71 185 -184 6 -29
10 -253 10 -520 0 -421 -2 -478 -19 -568 -50 -256 -155 -372 -363 -401 -60 -9
-90 -8 -148 4 -139 29 -197 93 -229 254 -15 73 -15 1300 0 1339 19 51 47 71
108 78 31 4 64 9 74 11 20 6 23 40 5 45 -7 2 -215 3 -461 1z"/>
<path d="M9744 3716 c-11 -30 4 -46 43 -46 57 0 106 -29 120 -70 18 -54 18
-1529 0 -1573 -20 -46 -37 -56 -103 -65 -54 -6 -59 -9 -59 -32 l0 -25 739 -3
c456 -1 742 1 746 7 3 5 2 65 -3 133 -4 68 -7 219 -5 336 l3 213 -29 -3 c-26
-3 -30 -9 -52 -86 -46 -159 -143 -321 -257 -428 -100 -95 -146 -114 -275 -114
-57 0 -112 4 -122 10 -10 5 -23 24 -29 41 -16 47 -14 1531 2 1578 17 49 52 71
127 79 57 6 65 10 68 30 l3 22 -439 0 c-242 0 -447 3 -456 6 -10 4 -18 0 -22
-10z"/>
<path d="M11401 3720 c-4 -3 -5 -141 -3 -308 l4 -303 26 3 c23 3 27 11 49 93
58 222 176 364 359 432 56 21 93 26 198 31 121 4 129 4 122 -13 -3 -10 -180
-400 -392 -866 -212 -467 -384 -857 -382 -866 3 -17 42 -18 688 -18 l685 0 -3
25 c-1 14 -5 163 -9 333 l-6 307 -23 0 c-18 0 -25 -7 -29 -27 -37 -174 -68
-247 -148 -343 -127 -154 -305 -240 -495 -240 -71 0 -83 2 -78 15 3 8 179 397
391 864 212 466 385 856 385 865 0 14 -60 16 -666 18 -366 2 -669 1 -673 -2z"/>
<path d="M13513 3713 c-11 -27 6 -40 56 -45 66 -7 96 -34 110 -100 7 -32 11
-299 11 -762 0 -611 -2 -720 -15 -764 -18 -59 -35 -72 -109 -81 -46 -5 -51 -8
-51 -31 l0 -25 440 0 440 0 0 25 c0 23 -4 25 -57 31 -66 7 -84 19 -107 69 -14
31 -16 120 -19 738 -2 427 1 730 7 774 13 93 34 115 116 126 52 6 60 10 63 30
2 12 0 22 -5 22 -489 7 -876 3 -880 -7z"/>
<path d="M14550 3705 c0 -20 6 -23 54 -30 66 -8 102 -33 116 -83 6 -24 10
-281 10 -717 -1 -847 1 -838 -123 -898 -47 -23 -57 -32 -57 -53 l0 -24 248 2
247 3 0 24 c0 22 -7 26 -58 37 -103 24 -151 64 -178 149 -16 49 -26 1015 -11
1015 9 0 74 -69 568 -605 131 -143 315 -342 408 -443 l168 -183 87 3 86 3 5
810 5 810 25 50 c22 43 34 54 88 80 46 23 62 35 62 51 0 21 -3 21 -250 22
l-250 0 0 -23 c0 -20 8 -25 69 -40 49 -12 81 -27 110 -51 70 -60 72 -79 78
-552 4 -264 2 -417 -4 -423 -9 -9 -173 162 -933 968 l-115 122 -227 -1 -228 0
0 -23z"/>
<path d="M18028 3719 c-5 -4 -8 -15 -6 -25 2 -15 15 -20 56 -25 68 -9 98 -30
111 -76 7 -25 11 -297 11 -786 0 -781 0 -790 -42 -825 -9 -7 -42 -16 -74 -20
-54 -6 -59 -9 -59 -32 l0 -25 440 0 440 0 0 25 c0 23 -5 26 -51 31 -69 9 -89
21 -108 69 -14 36 -16 122 -16 783 0 485 4 755 11 780 13 46 43 67 111 76 47
5 53 9 53 29 l0 23 -433 2 c-239 1 -438 -1 -444 -4z"/>
<path d="M20998 3719 c-5 -4 -8 -15 -6 -25 2 -15 16 -21 62 -26 67 -9 83 -19
105 -68 14 -31 16 -119 19 -724 2 -440 -1 -719 -7 -774 -14 -109 -30 -129
-116 -140 -55 -6 -60 -9 -60 -32 l0 -25 440 0 440 0 0 25 c0 23 -5 26 -53 32
-69 8 -98 34 -112 102 -7 33 -10 170 -8 391 l3 340 265 3 c146 1 275 0 288 -3
l22 -5 0 -366 c0 -450 1 -448 -124 -463 -46 -5 -51 -8 -51 -31 l0 -25 440 0
440 0 0 25 c0 23 -5 26 -51 31 -60 8 -89 22 -106 52 -10 17 -14 187 -16 767
-2 410 0 764 3 788 10 65 38 91 110 100 52 6 60 10 63 30 2 13 -2 22 -10 22
-7 0 -206 0 -443 0 l-430 0 0 -22 c0 -20 7 -24 53 -29 68 -9 98 -30 111 -76 7
-23 11 -176 11 -390 l0 -353 -290 0 -291 0 3 368 c3 328 5 370 21 399 17 33
55 50 122 55 22 2 31 9 33 25 l3 23 -436 2 c-240 2 -441 0 -447 -3z"/>
<path d="M23131 3720 c-4 -3 -3 -79 1 -170 5 -91 7 -243 6 -338 l-3 -173 28 3
c27 3 31 9 73 136 57 175 112 278 194 362 73 76 147 118 221 127 l49 6 0 -794
c0 -758 -1 -796 -19 -836 -26 -55 -63 -73 -170 -81 -83 -7 -86 -8 -86 -32 l0
-25 541 -3 c475 -2 543 0 548 13 12 32 -4 45 -60 45 -128 0 -191 34 -213 115
-7 27 -11 289 -11 819 l0 779 49 -6 c125 -15 256 -129 340 -297 28 -56 67
-153 87 -216 35 -111 37 -114 65 -114 l29 0 -6 108 c-3 59 -1 211 4 337 6 127
7 231 3 233 -13 5 -1663 7 -1670 2z"/>
</g>
</svg>
