<svg preserveAspectRatio="none" viewBox="0 0 2560 1440" xmlns="http://www.w3.org/2000/svg"><g fill="none" mask="url(#a)"><path fill="rgba(0, 0, 0, 1)" d="M0 0H2560V1440H0z"/><path d="M-40.4 975.4 76.4 991M-40.4 975.4l-13 146.4M-53.5 1121.8l158.3-9.7M-53.5 1121.8l116.8 133.4M-53.5 1121.8 76.5 991M-53.5 1121.8l-36.9 181.6M-53.5 1121.8l255.6 151.7M-90.4 1303.4l-7.9 126M-90.4 1303.4l153.7-48.2M-98.3 1429.4l30.6 129.6M-98.3 1429.4l204.8-9.7M-98.3 1429.4l142 162.9M-67.7 1559l111.4 33.3M-67.7 1559l174.2-139.3M-67.7 1559l-22.7-255.6M76.4 991l28.4 121.1M76.4 991l164.8-1M104.8 1112.1l141.6.2M104.8 1112.1l-41.5 143M104.8 1112.1l136.4-122.2M63.3 1255.2l138.8 18.3M63.3 1255.2l43.2 164.5M63.3 1255.2l183.1-142.8M106.5 1419.7l130.8-2M106.5 1419.7l95.6-146.2M106.5 1419.7l-62.8 172.6M43.7 1592.3 219 1568M256.9 859.2 241.2 990M256.9 859.2l118 125.3M256.9 859.2 76.4 991M256.9 859.2l-10.5 253.2M256.9 859.2l115.5 261.4M256.9 859.2l288.8-50.3M241.2 990l5.2 122.4M246.4 1112.4l126 8.2M246.4 1112.4l-44.3 161.2M246.4 1112.4 375 984.5M246.4 1112.4l144.3 140.4M202 1273.5l35.3 144.2M237.3 1417.8l126-2.3M237.3 1417.8 219 1568.1M219 1568.1l176-16M219 1568.1l-112.5-148.4M374.9 984.5 241.2 990M374.9 984.5l-2.5 136M372.4 1120.6l18.3 132.2M372.4 1120.6l180.8-21.8M390.7 1252.7l141.8 53.5M390.7 1252.7l-27.5 162.7M390.7 1252.7 202 1273.5M363.2 1415.4l31.9 136.6M395 1552l112.4 31.1M545.7 808.9l138.2-1.7M545.7 808.9l-21.1 179.3M545.7 808.9 682.3 940M545.7 808.9 375 984.5M524.6 988.2l28.6 110.5M524.6 988.2l-149.7-3.8M524.6 988.2 682.3 940M524.6 988.2l117.2 161M553.2 1098.7l88.6 50.4M553.2 1098.7l90.3 164.6M532.5 1306.2l20.8 90M532.5 1306.2l111-42.9M532.5 1306.2l109.3-157.1M532.5 1306.2l-169.3 109.2M532.5 1306.2l146.6 144.4M553.3 1396.1l125.8 54.5M553.3 1396.1l90.2-132.8M553.3 1396.1l-190 19.3M553.3 1396.1l-46 187M507.4 1583.1l177-10.7M507.4 1583.1 679 1450.6M507.4 1583.1l-144.2-167.7M507.4 1583.1l25.1-277M684 807.2l121.6 9M684 807.2 682.2 940M682.3 940l149.3 44.1M641.8 1149.1l1.7 114.3M643.5 1263.4l35.6 187.3M679 1450.6l5.4 121.8M679 1450.6l155.1 8.9M679 1450.6l117.8 131M684.4 1572.4l112.4 9.1M805.6 816.2l26 167.9M805.6 816.2 682.3 940M831.6 984.1l115 120.6M831.6 984.1l18.2 171M831.6 984.1l175-7.4M849.8 1155.1l96.7-50.4M849.8 1155.1 839 1263.8M839 1263.8l131 16.4M839 1263.8l107.5-159.1M834.1 1459.5l-37.3 122M987.1 697.6l-8.7 162M987.1 697.6 805.6 816.2M987.1 697.6l156.2 152.2M987.1 697.6l268 14.6M987.1 697.6l19.5 279.1M978.4 859.6l28.2 117.1M978.4 859.6l164.9-9.8M1006.6 976.7l120.8-13.5M1006.6 976.7l-60 128M1006.6 976.7l136.7-126.9M1006.6 976.7l116.1 167M946.5 1104.7l23.6 175.5M946.5 1104.7l176.2 38.9M970 1280.2l139.8 2M970 1280.2l27.8 139.7M997.8 1420l108.9 18M997.8 1420 834 1459.5M997.8 1420l112-137.8M997.8 1420l-24.3 189M973.5 1609l155.8-42.8M973.5 1609l-176.7-27.4M973.5 1609l-139.4-149.5M1143.3 849.8l-15.9 113.4M1143.3 849.8l161.1 11M1127.4 963.2l139.4 43.1M1127.4 963.2l-4.7 180.4M1122.7 1143.6l-12.9 138.6M1109.8 1282.2l-3.1 155.8M1106.7 1438l22.6 128.2M1106.7 1438l203.1 22.5M1106.7 1438l-136.6-157.7M1248.9 528l142.4 113.2M1255.1 712.2l136.3-71M1255.1 712.2l49.3 148.5M1304.4 860.7l85.8-22.6M1304.4 860.7l-37.6 145.6M1266.8 1006.3l20.6 151.8M1266.8 1006.3l139 110M1266.8 1006.3l185.7-62.3M1287.3 1158.1l15 81.2M1287.3 1158.1l118.5-41.8M1302.3 1239.4l130.9 9.7M1302.3 1239.4l103.6-123M1302.3 1239.4l95.7 149.3M1302.3 1239.4l-192.4 42.8M1302.3 1239.4l-179.6-95.7M1309.8 1460.4l88.2-71.8M1309.8 1460.4l-12.9 141.3M1296.9 1601.8l139-28.2M1296.9 1601.8l-167.7-35.6M1296.9 1601.8l101-213.2M1296.9 1601.8 1106.7 1438M1460.4 501.7l138.1 43.4M1460.4 501.7l-69 139.5M1391.4 641.2l147.5 9.6M1391.4 641.2l-1.2 196.9M1391.4 641.2l207-96.1M1390.2 838l62.3 106M1452.5 944l143.8 61.6M1452.5 944l-148.1-83.3M1405.8 1116.3l27.3 132.7M1405.8 1116.3l46.7-172.3M1405.8 1116.3l176.7 41.2M1433.1 1249l-35.1 139.6M1433.1 1249l-145.8-91M1435.9 1573.6l134.2 30.7M1435.9 1573.6l-126.1-113.1M1435.9 1573.6l-38-185M1605.1-96.3l131 19.9M1605.1-96.3l-43.2 166M1605.1-96.3l122.4 198.5M1561.9 69.8l22 155.7M1561.9 69.8l165.6 32.4M1583.8 225.5l132-14.4M1543.7 362.8l40.1-137.3M1543.7 362.8l-83.3 139M1543.7 362.8l54.8 182.3M1543.7 362.8l172.1-151.7M1543.7 362.8 1695.3 537M1598.5 545l96.8-8M1598.5 545l-59.6 105.8M1598.5 545 1734 678.8M1538.9 650.8l-78.5-149M1538.9 650.8l58.3 179.2M1597.2 830l141.4 10M1597.2 830l-.9 175.6M1597.2 830l-144.7 114M1597.2 830l145.5 116.6M1596.3 1005.6l-13.7 152M1582.6 1157.5l132.1 103M1582.6 1157.5l-149.4 91.5M1593.6 1455.6l104.2 1.2M1593.6 1455.6l-23.5 148.7M1593.6 1455.6l133.7 118.4M1593.6 1455.6l-157.7 118M1593.6 1455.6l-195.6-67M1570.1 1604.3l157.2-30.3M1570.1 1604.3l127.7-147.5M1570.1 1604.3l-273.2-2.5M1736.2-76.4l143.6 31M1736.2-76.4l-8.7 178.6M1727.5 102.2l-11.7 108.9M1727.5 102.2l122-3M1727.5 102.2l-143.7 123.3M1715.8 211l148.6 44.4M1715.8 211l133.6-111.7M1715.8 211l-154-141.2M1695.2 537l38.7 141.7M1695.2 537l156.5-9.2M1733.9 678.7l4.6 161.2M1733.9 678.7l117.8-151M1733.9 678.7l-195-27.9M1738.5 840l101.5 7.6M1738.5 840l4.1 106.6M1738.5 840l111 142M1738.5 840l-142.2 165.6M1742.7 946.6l107 35.3M1760.7 1093.8l89-111.8M1760.7 1093.8l-18-147.1M1714.7 1260.6l148 42M1714.7 1260.6l46-166.8M1714.7 1260.6l-16.8 196.2M1697.9 1456.8l29.5 117.2M1727.3 1574l135.7-1.3M1727.3 1574l280.8-31.8M1879.8-45.5l146.3 4.8M1879.8-45.5l-30.4 144.8M1879.8-45.5l-152.3 147.7M1849.4 99.3l15 156.1M1864.4 255.4l22.3 135.2M1886.7 390.6l118.8 7.2M1886.7 390.6l-35 137.2M1840.1 847.6l9.5 134.3M1840.1 847.6l-97.4 99M1862.7 1302.6l138.5-46.2M1862.7 1302.6l-164.8 154.2M1862.7 1302.6l-102-208.8M1862.7 1302.6l193 149.1M1862.7 1302.6l153.4-194.8M1863.1 1572.7l145-30.5M2026.1-40.6l32 144.6M2026.1-40.6l162.2-14.6M2058.1 104l104.8 88.3M2058.1 104l-20 139M2058.1 104l147.6 5.8M2038.2 243l124.8-50.8M2038.2 243l-32.7 154.8M2038.2 243l-173.8 12.4M2038.2 243 2202 357.8M2005.4 397.8l-141-142.4M2005.4 397.8l196.5-40M2005.4 397.8l-153.7 130M2029.4 646.7l138-86M2029.4 646.7l180 41.3M2029.4 646.7l32 183M2029.4 646.7l-177.6-119M2029.4 646.7l147.3 170.9M2061.4 829.8l115.3-12.2M2061.4 829.8l-27 129.1M2034.4 959l104 7.7M2034.4 959l-18.3 148.7M2034.4 959l-184.8 23M2034.4 959l129.5 139.7M2016.1 1107.8l147.7-9M2016.1 1107.8l-15 148.7M2016.1 1107.8l122.3-141M2016.1 1107.8 1849.6 982M2001.2 1256.4l192.4 24.4M2001.2 1256.4l54.5 195.3M2001.2 1256.4l162.6-157.7M2001.2 1256.4l211.2 132.5M2055.7 1451.7l-47.5 90.5M2055.7 1451.7l156.7-62.8M2055.7 1451.7l131.8 149.4M2008.1 1542.2l179.3 58.9M2008.1 1542.2l204.3-153.3M2008.1 1542.2l-145.4-239.6M2188.3-55.2l152.8-47M2188.3-55.2l17.4 165M2205.7 109.8l85.2-.9M2205.7 109.8l-42.7 82.5M2205.7 109.8l127.7 79.5M2202 357.8l131.8 51.3M2202 357.8l-39-165.6M2202 357.8l137.5 142.3M2167.3 560.7l42 127.3M2167.3 560.7l172.2-60.6M2167.3 560.7l34.7-202.9M2209.4 688l119.1 17.6M2209.4 688l-32.7 129.6M2209.4 688l80.1 130.5M2176.6 817.6l112.9.9M2138.4 966.7l25.4 132M2138.4 966.7l38.3-149.1M2138.4 966.7l-77-137M2138.4 966.7l175 15.7M2163.8 1098.7l29.8 182.1M2193.6 1280.8l18.8 108.1M2193.6 1280.8l146.2-11.1M2193.6 1280.8l110.3 166M2212.4 1388.9l91.5 57.8M2187.4 1601.1l138.9 1.3M2187.4 1601.1l116.5-154.3M2341.1-102.3l122.8 62M2341.1-102.3l145 154.3M2341.1-102.3 2290.9 109M2341.1-102.3l-135.4 212M2341.1-102.3l-7.7 291.6M2290.9 108.9l42.5 80.5M2290.9 108.9l-128 83.3M2333.3 189.3l137.6 12.9M2333.3 189.3l-170.4 3M2333.8 409.1l5.7 91M2333.8 409.1l125.7-46M2333.8 409.1l125.6 80.6M2333.8 409.1l-.4-219.8M2333.8 409.1l-166.4 151.6M2339.5 500.1l120-10.4M2339.5 500.1l120-137M2328.5 705.6l-39 112.9M2289.5 818.5l24 163.9M2313.4 982.4l42.1 115M2313.4 982.4l156.6-30M2355.5 1097.5l155.3 58.2M2339.8 1269.7l100.9-7.2M2339.8 1269.7l15.7-172.2M2339.8 1269.7 2212.3 1389M2339.8 1269.7l112.6 134.8M2303.9 1446.8l148.5-42.4M2303.9 1446.8l22.4 155.6M2303.9 1446.8l140.3 91.4M2303.9 1446.8l36-177.1M2326.3 1602.3l118-64.1M2326.3 1602.3l126-198M2463.9-40.4l22.2 92.4M2463.9-40.4 2629-53M2463.9-40.4l157.5 129.8M2486.1 52l135.3 37.4M2486.1 52l-15.2 150.2M2486.1 52 2629-53M2486.1 52 2290.8 109M2470.9 202.2 2459.4 363M2470.9 202.2l159 47.6M2459.4 363v126.7M2450.1 707.6l50.6 83.7M2450.1 707.6l-121.7-2M2500.8 791.3l115.3 32.5M2470 952.3l30.8-161M2510.8 1155.7l-70 106.8M2510.8 1155.7l138.2-14.6M2440.7 1262.5l11.7 142M2440.7 1262.5l-85.2-165M2452.4 1404.4l-8.2 133.8M2444.2 1538.2l168.5 43.1M2444.2 1538.2l156.8-116.9M2629-53l117.7-26.3M2629-53l-7.6 142.4M2629.8 249.8l16 102.5M2629.8 249.8l159.8-14.2M2629.8 249.8l-8.5-160.4M2629.8 249.8l118.6 112M2629.8 249.8 2459.4 363M2645.8 352.3l102.6 9.5M2645.8 352.3l-31.2 136.4M2645.8 352.3l92.7 140.3M2645.8 352.3l143.8-116.7M2614.6 488.7l123.9 3.9M2616.1 823.8l134 9.8M2616.1 823.8l-146 128.5M2616.1 823.8l-166-116.2M2649 1141l140.9-16.5M2649 1141l106 164M2649 1141l-208.3 121.4M2649 1141l-179-188.7M2601 1421.3l-148.6-16.9M2601 1421.3l11.8 160M2601 1421.3l154-116.2M2601 1421.3l194.9 1.1M2601 1421.3l153.8 140.8M2612.8 1581.4l142-19.2M2746.7-79.3 2621.3 89.4M2746.7-79.3l-282.9 39M2789.6 235.6l-41.1 126.2M2789.6 235.6 2621.3 89.4M2789.6 235.6l-51.1 257M2789.6 235.6l-175 253.1M2748.5 361.8l-10 130.8M2748.5 361.8l-133.8 126.9M2748.5 361.8l-289 1.3M2797.5 688.7l-47.5 145M2797.5 688.7l-59-196.1M2797.5 688.7l-181.4 135M2797.5 688.7l-182.8-200M2797.5 688.7l-296.7 102.6M2750 833.6l-249.2-42.3M2789.9 1124.6l-34.9 180.5M2755 1305.1l40.9 117.3M2795.9 1422.4l-41 139.7M2795.9 1422.4l-183.1 159M2795.9 1422.4l-6-297.9" stroke="rgba(44, 3, 86, 0)" stroke-width="1.5"/><circle cx="-40.4" cy="975.4" r="5" fill="rgba(44, 3, 86, 0)"/><circle cx="-53.5" cy="1121.8" r="5" fill="rgba(44, 3, 86, 0)"/><circle cx="-90.4" cy="1303.4" r="5" fill="rgba(44, 3, 86, 0)"/><circle cx="-98.3" cy="1429.4" r="5" fill="rgba(44, 3, 86, 0)"/><circle cx="-67.7" cy="1559" r="5" fill="rgba(44, 3, 86, 0)"/><circle cx="76.4" cy="991" r="5" fill="rgba(44, 3, 86, 0)"/><circle cx="104.8" cy="1112.1" r="5" fill="rgba(44, 3, 86, 0)"/><circle cx="63.3" cy="1255.2" r="5" fill="rgba(44, 3, 86, 0)"/><circle cx="106.5" cy="1419.7" r="5" fill="rgba(44, 3, 86, 0)"/><circle cx="43.7" cy="1592.3" r="5" fill="rgba(44, 3, 86, 0)"/><circle cx="256.9" cy="859.2" r="5" fill="rgba(44, 3, 86, 0)"/><circle cx="241.2" cy="990" r="5" fill="rgba(44, 3, 86, 0)"/><circle cx="246.4" cy="1112.4" r="5" fill="rgba(44, 3, 86, 0)"/><circle cx="202.1" cy="1273.5" r="5" fill="rgba(44, 3, 86, 0)"/><circle cx="237.3" cy="1417.8" r="5" fill="rgba(44, 3, 86, 0)"/><circle cx="219" cy="1568.1" r="5" fill="rgba(44, 3, 86, 0)"/><circle cx="374.9" cy="984.5" r="5" fill="rgba(44, 3, 86, 0)"/><circle cx="372.4" cy="1120.6" r="5" fill="rgba(44, 3, 86, 0)"/><circle cx="390.7" cy="1252.7" r="5" fill="rgba(44, 3, 86, 0)"/><circle cx="363.2" cy="1415.4" r="5" fill="rgba(44, 3, 86, 0)"/><circle cx="395.1" cy="1552" r="5" fill="rgba(44, 3, 86, 0)"/><circle cx="545.7" cy="808.9" r="5" fill="rgba(44, 3, 86, 0)"/><circle cx="524.6" cy="988.2" r="5" fill="rgba(44, 3, 86, 0)"/><circle cx="553.2" cy="1098.7" r="5" fill="rgba(44, 3, 86, 0)"/><circle cx="532.5" cy="1306.2" r="5" fill="rgba(44, 3, 86, 0)"/><circle cx="553.3" cy="1396.1" r="5" fill="rgba(44, 3, 86, 0)"/><circle cx="507.4" cy="1583.1" r="5" fill="rgba(44, 3, 86, 0)"/><circle cx="683.9" cy="807.2" r="5" fill="rgba(44, 3, 86, 0)"/><circle cx="682.3" cy="940" r="5" fill="rgba(44, 3, 86, 0)"/><circle cx="641.8" cy="1149.1" r="5" fill="rgba(44, 3, 86, 0)"/><circle cx="643.5" cy="1263.4" r="5" fill="rgba(44, 3, 86, 0)"/><circle cx="679.1" cy="1450.6" r="5" fill="rgba(44, 3, 86, 0)"/><circle cx="684.4" cy="1572.4" r="5" fill="rgba(44, 3, 86, 0)"/><circle cx="805.6" cy="816.2" r="5" fill="rgba(44, 3, 86, 0)"/><circle cx="831.6" cy="984.1" r="5" fill="rgba(44, 3, 86, 0)"/><circle cx="849.8" cy="1155.1" r="5" fill="rgba(44, 3, 86, 0)"/><circle cx="839.1" cy="1263.8" r="5" fill="rgba(44, 3, 86, 0)"/><circle cx="834.1" cy="1459.5" r="5" fill="rgba(44, 3, 86, 0)"/><circle cx="796.8" cy="1581.5" r="5" fill="rgba(44, 3, 86, 0)"/><circle cx="987.1" cy="697.6" r="5" fill="rgba(44, 3, 86, 0)"/><circle cx="978.4" cy="859.6" r="5" fill="rgba(44, 3, 86, 0)"/><circle cx="1006.6" cy="976.7" r="5" fill="rgba(44, 3, 86, 0)"/><circle cx="946.5" cy="1104.7" r="5" fill="rgba(44, 3, 86, 0)"/><circle cx="970.1" cy="1280.2" r="5" fill="rgba(44, 3, 86, 0)"/><circle cx="997.8" cy="1420" r="5" fill="rgba(44, 3, 86, 0)"/><circle cx="973.5" cy="1609" r="5" fill="rgba(44, 3, 86, 0)"/><circle cx="1143.3" cy="849.8" r="5" fill="rgba(44, 3, 86, 0)"/><circle cx="1127.4" cy="963.2" r="5" fill="rgba(44, 3, 86, 0)"/><circle cx="1122.7" cy="1143.6" r="5" fill="rgba(44, 3, 86, 0)"/><circle cx="1109.8" cy="1282.2" r="5" fill="rgba(44, 3, 86, 0)"/><circle cx="1106.7" cy="1438" r="5" fill="rgba(44, 3, 86, 0)"/><circle cx="1129.3" cy="1566.2" r="5" fill="rgba(44, 3, 86, 0)"/><circle cx="1248.9" cy="528" r="5" fill="rgba(44, 3, 86, 0)"/><circle cx="1255.1" cy="712.2" r="5" fill="rgba(44, 3, 86, 0)"/><circle cx="1304.4" cy="860.7" r="5" fill="rgba(44, 3, 86, 0)"/><circle cx="1266.8" cy="1006.3" r="5" fill="rgba(44, 3, 86, 0)"/><circle cx="1287.3" cy="1158.1" r="5" fill="rgba(44, 3, 86, 0)"/><circle cx="1302.3" cy="1239.4" r="5" fill="rgba(44, 3, 86, 0)"/><circle cx="1309.8" cy="1460.4" r="5" fill="rgba(44, 3, 86, 0)"/><circle cx="1296.9" cy="1601.8" r="5" fill="rgba(44, 3, 86, 0)"/><circle cx="1460.4" cy="501.7" r="5" fill="rgba(44, 3, 86, 0)"/><circle cx="1391.4" cy="641.2" r="5" fill="rgba(44, 3, 86, 0)"/><circle cx="1390.2" cy="838.1" r="5" fill="rgba(44, 3, 86, 0)"/><circle cx="1452.5" cy="944" r="5" fill="rgba(44, 3, 86, 0)"/><circle cx="1405.8" cy="1116.3" r="5" fill="rgba(44, 3, 86, 0)"/><circle cx="1433.1" cy="1249" r="5" fill="rgba(44, 3, 86, 0)"/><circle cx="1398" cy="1388.6" r="5" fill="rgba(44, 3, 86, 0)"/><circle cx="1435.9" cy="1573.6" r="5" fill="rgba(44, 3, 86, 0)"/><circle cx="1605.1" cy="-96.3" r="5" fill="rgba(44, 3, 86, 0)"/><circle cx="1561.9" cy="69.8" r="5" fill="rgba(44, 3, 86, 0)"/><circle cx="1583.8" cy="225.5" r="5" fill="rgba(44, 3, 86, 0)"/><circle cx="1543.7" cy="362.8" r="5" fill="rgba(44, 3, 86, 0)"/><circle cx="1598.5" cy="545.1" r="5" fill="rgba(44, 3, 86, 0)"/><circle cx="1538.9" cy="650.8" r="5" fill="rgba(44, 3, 86, 0)"/><circle cx="1597.2" cy="830" r="5" fill="rgba(44, 3, 86, 0)"/><circle cx="1596.3" cy="1005.6" r="5" fill="rgba(44, 3, 86, 0)"/><circle cx="1582.6" cy="1157.5" r="5" fill="rgba(44, 3, 86, 0)"/><circle cx="1593.6" cy="1455.6" r="5" fill="rgba(44, 3, 86, 0)"/><circle cx="1570.1" cy="1604.3" r="5" fill="rgba(44, 3, 86, 0)"/><circle cx="1736.2" cy="-76.4" r="5" fill="rgba(44, 3, 86, 0)"/><circle cx="1727.5" cy="102.2" r="5" fill="rgba(44, 3, 86, 0)"/><circle cx="1715.8" cy="211.1" r="5" fill="rgba(44, 3, 86, 0)"/><circle cx="1695.2" cy="537" r="5" fill="rgba(44, 3, 86, 0)"/><circle cx="1733.9" cy="678.7" r="5" fill="rgba(44, 3, 86, 0)"/><circle cx="1738.5" cy="839.9" r="5" fill="rgba(44, 3, 86, 0)"/><circle cx="1742.7" cy="946.6" r="5" fill="rgba(44, 3, 86, 0)"/><circle cx="1760.7" cy="1093.8" r="5" fill="rgba(44, 3, 86, 0)"/><circle cx="1714.7" cy="1260.6" r="5" fill="rgba(44, 3, 86, 0)"/><circle cx="1697.9" cy="1456.8" r="5" fill="rgba(44, 3, 86, 0)"/><circle cx="1727.3" cy="1574" r="5" fill="rgba(44, 3, 86, 0)"/><circle cx="1879.8" cy="-45.5" r="5" fill="rgba(44, 3, 86, 0)"/><circle cx="1849.4" cy="99.3" r="5" fill="rgba(44, 3, 86, 0)"/><circle cx="1864.4" cy="255.4" r="5" fill="rgba(44, 3, 86, 0)"/><circle cx="1886.7" cy="390.6" r="5" fill="rgba(44, 3, 86, 0)"/><circle cx="1851.8" cy="527.8" r="5" fill="rgba(44, 3, 86, 0)"/><circle cx="1840.1" cy="847.6" r="5" fill="rgba(44, 3, 86, 0)"/><circle cx="1849.6" cy="981.9" r="5" fill="rgba(44, 3, 86, 0)"/><circle cx="1862.7" cy="1302.6" r="5" fill="rgba(44, 3, 86, 0)"/><circle cx="1863.1" cy="1572.7" r="5" fill="rgba(44, 3, 86, 0)"/><circle cx="2026.1" cy="-40.6" r="5" fill="rgba(44, 3, 86, 0)"/><circle cx="2058.1" cy="104" r="5" fill="rgba(44, 3, 86, 0)"/><circle cx="2038.2" cy="243" r="5" fill="rgba(44, 3, 86, 0)"/><circle cx="2005.4" cy="397.8" r="5" fill="rgba(44, 3, 86, 0)"/><circle cx="2029.4" cy="646.7" r="5" fill="rgba(44, 3, 86, 0)"/><circle cx="2061.4" cy="829.8" r="5" fill="rgba(44, 3, 86, 0)"/><circle cx="2034.4" cy="958.9" r="5" fill="rgba(44, 3, 86, 0)"/><circle cx="2016.1" cy="1107.8" r="5" fill="rgba(44, 3, 86, 0)"/><circle cx="2001.2" cy="1256.4" r="5" fill="rgba(44, 3, 86, 0)"/><circle cx="2055.7" cy="1451.7" r="5" fill="rgba(44, 3, 86, 0)"/><circle cx="2008.1" cy="1542.2" r="5" fill="rgba(44, 3, 86, 0)"/><circle cx="2188.3" cy="-55.2" r="5" fill="rgba(44, 3, 86, 0)"/><circle cx="2205.7" cy="109.8" r="5" fill="rgba(44, 3, 86, 0)"/><circle cx="2163" cy="192.3" r="5" fill="rgba(44, 3, 86, 0)"/><circle cx="2202" cy="357.8" r="5" fill="rgba(44, 3, 86, 0)"/><circle cx="2167.3" cy="560.7" r="5" fill="rgba(44, 3, 86, 0)"/><circle cx="2209.4" cy="688" r="5" fill="rgba(44, 3, 86, 0)"/><circle cx="2176.6" cy="817.6" r="5" fill="rgba(44, 3, 86, 0)"/><circle cx="2138.4" cy="966.7" r="5" fill="rgba(44, 3, 86, 0)"/><circle cx="2163.8" cy="1098.7" r="5" fill="rgba(44, 3, 86, 0)"/><circle cx="2193.6" cy="1280.8" r="5" fill="rgba(44, 3, 86, 0)"/><circle cx="2212.4" cy="1388.9" r="5" fill="rgba(44, 3, 86, 0)"/><circle cx="2187.4" cy="1601.1" r="5" fill="rgba(44, 3, 86, 0)"/><circle cx="2341.1" cy="-102.3" r="5" fill="rgba(44, 3, 86, 0)"/><circle cx="2290.9" cy="108.9" r="5" fill="rgba(44, 3, 86, 0)"/><circle cx="2333.3" cy="189.3" r="5" fill="rgba(44, 3, 86, 0)"/><circle cx="2333.8" cy="409.1" r="5" fill="rgba(44, 3, 86, 0)"/><circle cx="2339.5" cy="500.1" r="5" fill="rgba(44, 3, 86, 0)"/><circle cx="2328.5" cy="705.6" r="5" fill="rgba(44, 3, 86, 0)"/><circle cx="2289.5" cy="818.5" r="5" fill="rgba(44, 3, 86, 0)"/><circle cx="2313.4" cy="982.4" r="5" fill="rgba(44, 3, 86, 0)"/><circle cx="2355.5" cy="1097.5" r="5" fill="rgba(44, 3, 86, 0)"/><circle cx="2339.8" cy="1269.7" r="5" fill="rgba(44, 3, 86, 0)"/><circle cx="2303.9" cy="1446.8" r="5" fill="rgba(44, 3, 86, 0)"/><circle cx="2326.3" cy="1602.3" r="5" fill="rgba(44, 3, 86, 0)"/><circle cx="2463.9" cy="-40.4" r="5" fill="rgba(44, 3, 86, 0)"/><circle cx="2486.1" cy="52" r="5" fill="rgba(44, 3, 86, 0)"/><circle cx="2470.9" cy="202.2" r="5" fill="rgba(44, 3, 86, 0)"/><circle cx="2459.4" cy="363.1" r="5" fill="rgba(44, 3, 86, 0)"/><circle cx="2459.4" cy="489.7" r="5" fill="rgba(44, 3, 86, 0)"/><circle cx="2450.1" cy="707.6" r="5" fill="rgba(44, 3, 86, 0)"/><circle cx="2500.8" cy="791.3" r="5" fill="rgba(44, 3, 86, 0)"/><circle cx="2470" cy="952.3" r="5" fill="rgba(44, 3, 86, 0)"/><circle cx="2510.8" cy="1155.7" r="5" fill="rgba(44, 3, 86, 0)"/><circle cx="2440.7" cy="1262.5" r="5" fill="rgba(44, 3, 86, 0)"/><circle cx="2452.4" cy="1404.4" r="5" fill="rgba(44, 3, 86, 0)"/><circle cx="2444.2" cy="1538.2" r="5" fill="rgba(44, 3, 86, 0)"/><circle cx="2629" cy="-53" r="5" fill="rgba(44, 3, 86, 0)"/><circle cx="2621.4" cy="89.4" r="5" fill="rgba(44, 3, 86, 0)"/><circle cx="2629.8" cy="249.8" r="5" fill="rgba(44, 3, 86, 0)"/><circle cx="2645.8" cy="352.3" r="5" fill="rgba(44, 3, 86, 0)"/><circle cx="2614.6" cy="488.7" r="5" fill="rgba(44, 3, 86, 0)"/><circle cx="2616.1" cy="823.8" r="5" fill="rgba(44, 3, 86, 0)"/><circle cx="2649" cy="1141" r="5" fill="rgba(44, 3, 86, 0)"/><circle cx="2601" cy="1421.3" r="5" fill="rgba(44, 3, 86, 0)"/><circle cx="2612.8" cy="1581.4" r="5" fill="rgba(44, 3, 86, 0)"/><circle cx="2746.7" cy="-79.3" r="5" fill="rgba(44, 3, 86, 0)"/><circle cx="2789.6" cy="235.6" r="5" fill="rgba(44, 3, 86, 0)"/><circle cx="2748.5" cy="361.8" r="5" fill="rgba(44, 3, 86, 0)"/><circle cx="2738.5" cy="492.6" r="5" fill="rgba(44, 3, 86, 0)"/><circle cx="2797.5" cy="688.7" r="5" fill="rgba(44, 3, 86, 0)"/><circle cx="2750" cy="833.6" r="5" fill="rgba(44, 3, 86, 0)"/><circle cx="2789.9" cy="1124.6" r="5" fill="rgba(44, 3, 86, 0)"/><circle cx="2755" cy="1305.1" r="5" fill="rgba(44, 3, 86, 0)"/><circle cx="2795.9" cy="1422.4" r="5" fill="rgba(44, 3, 86, 0)"/><circle cx="2754.8" cy="1562.1" r="5" fill="rgba(44, 3, 86, 0)"/><path d="m-77.2 1558.2 26-107.4M-77.2 1558.2l172.4 32M-77.2 1558.2l182-149.6M-77.2 1558.2l328.5-165.9M-77.2 1558.2l333.4-277.7M341.3 1423.5l-90-31.2M341.3 1423.5l50.5 147.9M341.3 1423.5l158.6-33.5M341.3 1423.5l-85.2-143M341.3 1423.5l.3-173.2M511.8 1271.3l-12 118.7M511.8 1271.3l142-12.6M511.8 1271.3l-170.2-21M511.8 1271.3l165-133.7M511.8 1271.3l-170.5 152.2M531.3 1541.2l136.3 17.3M531.3 1541.2l-139.5 30.1M667.6 1558.6l3-120.2M667.6 1558.6 826 1607M667.6 1558.6 848 1406.8M667.6 1558.6 499.8 1390M857.8 1159.5l97.6-45.6M857.8 1159.5l-181-22M857.8 1159.5l-204 99.2M857.8 1159.5l-9.7 247.2M848 1406.7l-177.5 31.6M848 1406.7l-22 200.2M1005.4 1604.5l91.3-9.2M1005.4 1604.5l-179.3 2.5M1005.4 1604.5l90.4-201M1005.4 1604.5l-157.3-197.8M1005.4 1604.5l289.8-61M1005.4 1604.5l88-297.1M1161.9 999l-59.8 100.2M1161.9 999l141.9-4M1161.9 999l113.3 145.5M1161.9 999l227.6-56.5M1161.9 999l-206.5 115M1161.9 999l142 252.5M1102.1 1099.2 955.3 1114M1102.1 1099.2l173.1 45.4M1102.1 1099.2l-8.7 208.2M1102.1 1099.2 1303.7 995M1093.5 1307.4l2.3 96.2M1095.8 1403.6l.9 191.8M1095.8 1403.6l200.7 10.6M1095.8 1403.6l199.4 140M1095.8 1403.6l-247.7 3.2M1303.8 995l85.7-52.5M1454.8 1564.6l110.8 15M1454.8 1564.6l113.7-102.9M1454.8 1564.6l-159.6-21M1869.6 696.2l-2.9 127.5M1869.6 696.2l-142.5-46.7M1869.6 696.2l183.3-25.3M1869.6 696.2l32.4-198.4M1869.6 696.2l185.7 111.6M1884.7 1286.6l.8 109.2M1884.7 1286.6l15.9-124.8M1884.7 1286.6l132.5 2.3M1884.7 1286.6l-191.7-43.3M1885.5 1395.8l137.3 61M1885.5 1395.8l-42 158.8M2028.4 506l11.8-102M2028.4 506l-126.4-8.2M2028.4 506l149 11.4M2028.4 506l24.5 164.9M2028.4 506l166.4-140M2022.8 1456.9l-9.7 114M2022.8 1456.9l148.4-17.7M2194.8 366l95-19.5M2194.8 366l-55.4-133.5M2194.8 366l-17.4 151.4M2194.8 366l-154.5 38M2194.8 366l156.8-104M2206.3 987.9l110.9-34.8M2206.3 987.9l-35 150.3M2206.3 987.9l154 112.4M2206.3 987.9l-191.4 17.4M2206.3 987.9l-53.7-185.6M2206.3 987.9l-160 146.1M2142.6 1299.1l-125.4-10.2M2142.6 1299.1l28.6 140M2171.2 1439.1l174.6-19.3M2171.2 1439.1l-158.1 131.7M2171.2 1439.1l-154-150.2M2359.5-99l140 58M2359.5-99l-180 40.7M2359.5-99l-18.8 202.8M2359.5-99 2199.6 66.5M2359.5-99l127.2 211.4M2359.5-99l261.8 52M2499.6-41l121.7-6M2499.6-41l-12.9 153.4M2499.6-41l122.6 97.7M2453.9 641.3l-117.4 26.4M2453.9 641.3l-5.4 146.7M2456.6 1239.6l37-78.8M2456.6 1239.6l-154.4 22.4M2456.6 1239.6l161.5 27.6M2456.6 1239.6l-96.4-139.3M2641.4 670.7l101.7-12M2641.4 670.7 2621.9 806M2641.4 670.7l-19-149.8M2641.4 670.7l-187.5-29.4M2643.4 946.2l94.4 32.1M2643.4 946.2 2621.9 806M2643.4 946.2l-8 187.5M2643.4 946.2l139.4 150.4M2635.4 1133.7l-17.2 133.5M2635.4 1133.7l-141.7 27.1M2635.4 1133.7l147.5-37.1M2754.5-50.5l19 121.2M2754.5-50.5 2621.2-47M2758.6 499.1l8.4-120.9M2758.6 499.1 2622.4 521M2782.8 1096.6l-45-118.3M2782.8 1096.6l-164.7 170.6M2782.8 1096.6l-289.2 64.3M-51.1 1450.7l155.8-42.2M-51.1 1450.7l146.3 139.4M-51.1 1450.7l302.4-58.5M-51.1 1450.7l307.3-170.3M-51.1 1450.7l392.4-27.3M104.7 1408.5l146.6-16.3M104.7 1408.5l-9.5 181.6M104.7 1408.5l151.4-128M95.2 1590.1l156-197.8M95.2 1590.1l296.6-18.8M95.2 1590.1l246.1-166.6M238.7 1156.1l17.5 124.4M238.7 1156.1l103 94.2M238.7 1156.1l12.6 236.2M238.7 1156.1l-134 252.5M256.1 1280.5l85.5-30.3M256.1 1280.5l-4.8 111.8M251.3 1392.3l90.3-142M341.6 1250.2 500 1390M499.9 1390l31.4 151.3M499.9 1390l170.6 48.4M499.9 1390l153.8-131.3M499.9 1390l-108 181.4M676.7 1137.6l-23 121.1M676.7 1137.6l278.6-23.6M676.7 1137.6l-6.2 300.8M653.7 1258.7l16.8 179.7M670.5 1438.4l-139.2 102.9M955.4 1113.9l138 193.5M955.4 1113.9 848 1406.7M1275.2 1144.5l28.6 107M1275.2 1144.5l28.5-149.6M1275.2 1144.5l142.7 135.6M1303.8 1251.5l114.2 28.6M1296.5 1414.2l121.8-24.7M1296.5 1414.2l-1.3 129.4M1296.5 1414.2l7.3-162.7M1296.5 1414.2l121.4-134M1295.2 1543.6l123-154M1295.2 1543.6l-198.5 51.8M1295.2 1543.6l270.4 36M1389.5 942.5l190 19M1418 1280.2l.3 109.3M1418 1280.2l141.2-35.2M1418 1280.2l150.6 181.5M1418.3 1389.5l150.2 72.2M1418.3 1389.5l36.5 175M1418.3 1389.5l-114.5-138M1579.4 961.4l-.3 138.4M1579.4 961.4l164.2 10.2M1579.4 961.4l129.2 201M1579.1 1099.8l129.5 62.7M1579.1 1099.8l-20 145.1M1579.1 1099.8l114 143.6M1559.2 1244.9l133.9-1.5M1559.2 1244.9l149.4-82.5M1568.5 1461.7l-3 118M1568.5 1461.7l152-62.5M1727.1 649.5l139.6 174.3M1727.1 649.5l175-151.7M1727.1 649.5l16.4 322M1727.1 649.5l325.8 21.4M1727.1 649.5 2028.4 506M1743.6 971.6l120.2-11.2M1708.6 1162.5l-15.6 81M1708.6 1162.5l192-.6M1708.6 1162.5l35-190.9M1708.6 1162.5l176.1 124.2M1693 1243.4l27.4 155.8M1720.5 1399.2l165-3.4M1720.5 1399.2l-2.5 192.6M1720.5 1399.2l122.9 155.4M1720.5 1399.2l164.2-112.6M1718 1591.8l125.4-37.2M1718 1591.8l-152.4-12.1M1718 1591.8l-149.5-130.1M1718 1591.8l167.5-196M1718 1591.8l-263.2-27.2M1902 497.8l138.2-93.8M1902 497.8l150.9 173M1866.7 823.8l-3 136.6M1866.7 823.8l188.6-16M1863.8 960.4l151.2 44.9M1863.8 960.4l36.8 201.5M1900.6 1161.9l145.6-27.9M1843.4 1554.6l169.8 16.2M2052.9-99.6l126.5 41.3M2052.9-99.6l146.7 166.1M2027.3 231.9l112.2.6M2027.3 231.9l13 172.2M2052.9 670.9l128.2 31.1M2052.9 670.9l2.5 136.9M2052.9 670.9l99.6 131.4M2055.4 807.8l97.2-5.5M2014.9 1005.3l31.3 128.8M2046.2 1134l125 4.2M2017.2 1288.9l29-154.8M2017.2 1288.9l5.6 168M2013.1 1570.8l-127.7-175M2179.4-58.3l20.2 124.8M2199.6 66.5l141 37.3M2181.2 702l-28.6 100.3M2181.2 702l155.3-34.3M2181.2 702l-125.8 105.8M2152.6 802.3l184.8-2.7M2171.2 1138.2l-28.6 160.9M2171.2 1138.2l131.1 123.8M2171.2 1138.2l189.1-38M2340.7 103.8l146 8.6M2340.7 103.8l103.4 113.4M2351.6 262l92.5-44.8M2289.8 346.5l61.8-84.4M2355.6 512.6l84.4-103.4M2355.6 512.6l-19.1 155.1M2355.6 512.6l98.3 128.7M2336.5 667.7l.9 132M2337.3 799.6l111.1-11.6M2337.3 799.6l-20.2 153.5M2337.3 799.6 2181.1 702M2337.3 799.6l116.6-158.3M2317.2 953.1l43.1 147.2M2317.2 953.1l131.3-165M2360.3 1100.3l133.3 60.5M2302.3 1262l43.5 157.8M2302.3 1262l-159.7 37.1M2345.8 1419.8l145.8 3.8M2345.8 1419.8l-6 167.8M2339.8 1587.6l117 10.7M2339.8 1587.6l151.8-164M2339.8 1587.6l-168.5-148.5M2339.8 1587.6l270-16.9M2486.7 112.4l-42.5 104.8M2486.7 112.4l135.5-55.7M2486.7 112.4l-135 149.7M2486.7 112.4 2621.3-47M2444.1 217.2l-4 192M2440 409.2l-150.2-62.7M2440 409.2 2351.6 262M2440 409.2l181.4-37.3M2448.5 788l-112-120.3M2448.5 788l173.4 18M2491.6 1423.6l129.5-19.6M2491.6 1423.6l-34.8 174.7M2491.6 1423.6l-35-184M2456.8 1598.3l153-27.6M2456.8 1598.3l-111-178.5M2456.8 1598.3l164.3-194.3M2621.2-47l.9 103.7M2621.2-47l152.3 117.7M2622.1 56.7l151.4 14M2622.1 56.7l132.4-107.2M2621.5 371.9l145.5 6.3M2621.5 371.9l1 149M2621.5 371.9l137 127.2M2621.5 371.9l151-179M2621.5 371.9l-177.4-154.7M2621.9 806l176.5-13.2M2618.2 1267.2l3 136.9M2618.2 1267.2l-124.5-106.3M2621.1 1404l148.6 1.2M2621.1 1404l-11.3 166.7M2609.8 1570.7l145.2-23.2M2773.5 70.7l-1 122.3M2772.6 193l-5.6 185.2M2772.6 193 2622.1 56.6M2772.6 193l-18-243.5M2767 378.2 2622.4 521M2767 378.2l-23.9 280.6M2743.1 658.8l55.3 134M2798.4 792.9l-60.5 185.4M2737.9 978.3l-102.5 155.4M2769.7 1405.3l-14.7 142.2M2769.7 1405.3l-151.5-138M2769.7 1405.3l-159.8 165.4M2769.7 1405.3l-278 18.3M2755 1547.5 2621 1404M2755 1547.5l-263.4-124" stroke="hsla(269.9, 100%, 65%, 0.38)" stroke-width="1.5"/><circle cx="-77.2" cy="1558.2" r="25" fill="url(#b)"/><circle cx="341.3" cy="1423.5" r="25" fill="url(#b)"/><circle cx="511.8" cy="1271.3" r="25" fill="url(#b)"/><circle cx="531.3" cy="1541.2" r="25" fill="url(#b)"/><circle cx="667.6" cy="1558.6" r="25" fill="url(#b)"/><circle cx="857.8" cy="1159.5" r="25" fill="url(#b)"/><circle cx="848.1" cy="1406.7" r="25" fill="url(#b)"/><circle cx="1005.4" cy="1604.5" r="25" fill="url(#b)"/><circle cx="1161.9" cy="999" r="25" fill="url(#b)"/><circle cx="1102.1" cy="1099.2" r="25" fill="url(#b)"/><circle cx="1093.5" cy="1307.4" r="25" fill="url(#b)"/><circle cx="1095.8" cy="1403.6" r="25" fill="url(#b)"/><circle cx="1303.8" cy="995" r="25" fill="url(#b)"/><circle cx="1454.8" cy="1564.6" r="25" fill="url(#b)"/><circle cx="1869.6" cy="696.2" r="25" fill="url(#b)"/><circle cx="1884.7" cy="1286.6" r="25" fill="url(#b)"/><circle cx="1885.5" cy="1395.8" r="25" fill="url(#b)"/><circle cx="2028.4" cy="506" r="25" fill="url(#b)"/><circle cx="2022.8" cy="1456.9" r="25" fill="url(#b)"/><circle cx="2194.8" cy="366" r="25" fill="url(#b)"/><circle cx="2206.3" cy="987.9" r="25" fill="url(#b)"/><circle cx="2142.6" cy="1299.1" r="25" fill="url(#b)"/><circle cx="2171.2" cy="1439.1" r="25" fill="url(#b)"/><circle cx="2359.5" cy="-99" r="25" fill="url(#b)"/><circle cx="2499.6" cy="-41.1" r="25" fill="url(#b)"/><circle cx="2453.9" cy="641.3" r="25" fill="url(#b)"/><circle cx="2456.6" cy="1239.6" r="25" fill="url(#b)"/><circle cx="2641.4" cy="670.7" r="25" fill="url(#b)"/><circle cx="2643.4" cy="946.2" r="25" fill="url(#b)"/><circle cx="2635.4" cy="1133.7" r="25" fill="url(#b)"/><circle cx="2754.5" cy="-50.5" r="25" fill="url(#b)"/><circle cx="2758.6" cy="499.1" r="25" fill="url(#b)"/><circle cx="2782.8" cy="1096.6" r="25" fill="url(#b)"/><circle cx="-51.1" cy="1450.7" r="5" fill="rgba(231, 207, 255, 0.69)"/><circle cx="104.7" cy="1408.5" r="5" fill="rgba(231, 207, 255, 0.69)"/><circle cx="95.2" cy="1590.1" r="5" fill="rgba(231, 207, 255, 0.69)"/><circle cx="238.7" cy="1156.1" r="5" fill="rgba(231, 207, 255, 0.69)"/><circle cx="256.1" cy="1280.5" r="5" fill="rgba(231, 207, 255, 0.69)"/><circle cx="251.3" cy="1392.3" r="5" fill="rgba(231, 207, 255, 0.69)"/><circle cx="341.6" cy="1250.2" r="5" fill="rgba(231, 207, 255, 0.69)"/><circle cx="391.8" cy="1571.4" r="5" fill="rgba(231, 207, 255, 0.69)"/><circle cx="499.9" cy="1390" r="5" fill="rgba(231, 207, 255, 0.69)"/><circle cx="676.7" cy="1137.6" r="5" fill="rgba(231, 207, 255, 0.69)"/><circle cx="653.7" cy="1258.7" r="5" fill="rgba(231, 207, 255, 0.69)"/><circle cx="670.5" cy="1438.4" r="5" fill="rgba(231, 207, 255, 0.69)"/><circle cx="826.1" cy="1607" r="5" fill="rgba(231, 207, 255, 0.69)"/><circle cx="955.4" cy="1113.9" r="5" fill="rgba(231, 207, 255, 0.69)"/><circle cx="1096.7" cy="1595.3" r="5" fill="rgba(231, 207, 255, 0.69)"/><circle cx="1275.2" cy="1144.5" r="5" fill="rgba(231, 207, 255, 0.69)"/><circle cx="1303.8" cy="1251.5" r="5" fill="rgba(231, 207, 255, 0.69)"/><circle cx="1296.5" cy="1414.2" r="5" fill="rgba(231, 207, 255, 0.69)"/><circle cx="1295.2" cy="1543.6" r="5" fill="rgba(231, 207, 255, 0.69)"/><circle cx="1389.5" cy="942.5" r="5" fill="rgba(231, 207, 255, 0.69)"/><circle cx="1418" cy="1280.2" r="5" fill="rgba(231, 207, 255, 0.69)"/><circle cx="1418.3" cy="1389.5" r="5" fill="rgba(231, 207, 255, 0.69)"/><circle cx="1579.4" cy="961.4" r="5" fill="rgba(231, 207, 255, 0.69)"/><circle cx="1579.1" cy="1099.8" r="5" fill="rgba(231, 207, 255, 0.69)"/><circle cx="1559.2" cy="1244.9" r="5" fill="rgba(231, 207, 255, 0.69)"/><circle cx="1568.5" cy="1461.7" r="5" fill="rgba(231, 207, 255, 0.69)"/><circle cx="1565.6" cy="1579.7" r="5" fill="rgba(231, 207, 255, 0.69)"/><circle cx="1727.1" cy="649.5" r="5" fill="rgba(231, 207, 255, 0.69)"/><circle cx="1743.6" cy="971.6" r="5" fill="rgba(231, 207, 255, 0.69)"/><circle cx="1708.6" cy="1162.5" r="5" fill="rgba(231, 207, 255, 0.69)"/><circle cx="1693" cy="1243.4" r="5" fill="rgba(231, 207, 255, 0.69)"/><circle cx="1720.5" cy="1399.2" r="5" fill="rgba(231, 207, 255, 0.69)"/><circle cx="1718" cy="1591.8" r="5" fill="rgba(231, 207, 255, 0.69)"/><circle cx="1902" cy="497.8" r="5" fill="rgba(231, 207, 255, 0.69)"/><circle cx="1866.7" cy="823.8" r="5" fill="rgba(231, 207, 255, 0.69)"/><circle cx="1863.8" cy="960.4" r="5" fill="rgba(231, 207, 255, 0.69)"/><circle cx="1900.6" cy="1161.9" r="5" fill="rgba(231, 207, 255, 0.69)"/><circle cx="1843.4" cy="1554.6" r="5" fill="rgba(231, 207, 255, 0.69)"/><circle cx="2052.9" cy="-99.6" r="5" fill="rgba(231, 207, 255, 0.69)"/><circle cx="2027.3" cy="231.9" r="5" fill="rgba(231, 207, 255, 0.69)"/><circle cx="2040.3" cy="404.1" r="5" fill="rgba(231, 207, 255, 0.69)"/><circle cx="2052.9" cy="670.9" r="5" fill="rgba(231, 207, 255, 0.69)"/><circle cx="2055.4" cy="807.8" r="5" fill="rgba(231, 207, 255, 0.69)"/><circle cx="2014.9" cy="1005.3" r="5" fill="rgba(231, 207, 255, 0.69)"/><circle cx="2046.2" cy="1134" r="5" fill="rgba(231, 207, 255, 0.69)"/><circle cx="2017.2" cy="1288.9" r="5" fill="rgba(231, 207, 255, 0.69)"/><circle cx="2013.1" cy="1570.8" r="5" fill="rgba(231, 207, 255, 0.69)"/><circle cx="2179.4" cy="-58.3" r="5" fill="rgba(231, 207, 255, 0.69)"/><circle cx="2199.6" cy="66.5" r="5" fill="rgba(231, 207, 255, 0.69)"/><circle cx="2139.4" cy="232.5" r="5" fill="rgba(231, 207, 255, 0.69)"/><circle cx="2177.4" cy="517.4" r="5" fill="rgba(231, 207, 255, 0.69)"/><circle cx="2181.2" cy="702" r="5" fill="rgba(231, 207, 255, 0.69)"/><circle cx="2152.6" cy="802.3" r="5" fill="rgba(231, 207, 255, 0.69)"/><circle cx="2171.2" cy="1138.2" r="5" fill="rgba(231, 207, 255, 0.69)"/><circle cx="2340.7" cy="103.8" r="5" fill="rgba(231, 207, 255, 0.69)"/><circle cx="2351.6" cy="262.1" r="5" fill="rgba(231, 207, 255, 0.69)"/><circle cx="2289.8" cy="346.5" r="5" fill="rgba(231, 207, 255, 0.69)"/><circle cx="2355.6" cy="512.6" r="5" fill="rgba(231, 207, 255, 0.69)"/><circle cx="2336.5" cy="667.7" r="5" fill="rgba(231, 207, 255, 0.69)"/><circle cx="2337.3" cy="799.6" r="5" fill="rgba(231, 207, 255, 0.69)"/><circle cx="2317.2" cy="953.1" r="5" fill="rgba(231, 207, 255, 0.69)"/><circle cx="2360.3" cy="1100.3" r="5" fill="rgba(231, 207, 255, 0.69)"/><circle cx="2302.3" cy="1262" r="5" fill="rgba(231, 207, 255, 0.69)"/><circle cx="2345.8" cy="1419.8" r="5" fill="rgba(231, 207, 255, 0.69)"/><circle cx="2339.8" cy="1587.6" r="5" fill="rgba(231, 207, 255, 0.69)"/><circle cx="2486.7" cy="112.4" r="5" fill="rgba(231, 207, 255, 0.69)"/><circle cx="2444.1" cy="217.2" r="5" fill="rgba(231, 207, 255, 0.69)"/><circle cx="2440" cy="409.2" r="5" fill="rgba(231, 207, 255, 0.69)"/><circle cx="2448.5" cy="788" r="5" fill="rgba(231, 207, 255, 0.69)"/><circle cx="2493.6" cy="1160.9" r="5" fill="rgba(231, 207, 255, 0.69)"/><circle cx="2491.6" cy="1423.6" r="5" fill="rgba(231, 207, 255, 0.69)"/><circle cx="2456.8" cy="1598.3" r="5" fill="rgba(231, 207, 255, 0.69)"/><circle cx="2621.2" cy="-47" r="5" fill="rgba(231, 207, 255, 0.69)"/><circle cx="2622.1" cy="56.7" r="5" fill="rgba(231, 207, 255, 0.69)"/><circle cx="2621.5" cy="371.9" r="5" fill="rgba(231, 207, 255, 0.69)"/><circle cx="2622.4" cy="520.9" r="5" fill="rgba(231, 207, 255, 0.69)"/><circle cx="2621.9" cy="806" r="5" fill="rgba(231, 207, 255, 0.69)"/><circle cx="2618.2" cy="1267.2" r="5" fill="rgba(231, 207, 255, 0.69)"/><circle cx="2621.1" cy="1404" r="5" fill="rgba(231, 207, 255, 0.69)"/><circle cx="2609.8" cy="1570.7" r="5" fill="rgba(231, 207, 255, 0.69)"/><circle cx="2773.5" cy="70.7" r="5" fill="rgba(231, 207, 255, 0.69)"/><circle cx="2772.6" cy="192.9" r="5" fill="rgba(231, 207, 255, 0.69)"/><circle cx="2767" cy="378.2" r="5" fill="rgba(231, 207, 255, 0.69)"/><circle cx="2743.1" cy="658.8" r="5" fill="rgba(231, 207, 255, 0.69)"/><circle cx="2798.4" cy="792.9" r="5" fill="rgba(231, 207, 255, 0.69)"/><circle cx="2737.9" cy="978.3" r="5" fill="rgba(231, 207, 255, 0.69)"/><circle cx="2769.7" cy="1405.3" r="5" fill="rgba(231, 207, 255, 0.69)"/><circle cx="2755" cy="1547.5" r="5" fill="rgba(231, 207, 255, 0.69)"/></g><defs><radialGradient id="b"><stop stop-color="#fff" offset=".1"/><stop stop-color="rgba(127, 0, 255, 0.38)" offset=".2"/><stop stop-color="rgba(127, 0, 255, 0)" offset="1"/></radialGradient><mask id="a"><path fill="#fff" d="M0 0H2560V1440H0z"/></mask></defs></svg>
