<?xml version="1.0" standalone="no"?>
<!DOCTYPE svg PUBLIC "-//W3C//DTD SVG 20010904//EN"
 "http://www.w3.org/TR/2001/REC-SVG-20010904/DTD/svg10.dtd">
<svg version="1.0" xmlns="http://www.w3.org/2000/svg"
 width="1080.000000pt" height="1080.000000pt" viewBox="0 0 1080.000000 1080.000000"
 preserveAspectRatio="xMidYMid meet">
<metadata>
Created by potrace 1.14, written by Peter Selinger 2001-2017
</metadata>
<g transform="translate(0.000000,1080.000000) scale(0.100000,-0.100000)"
fill="#000000" stroke="none">
<path d="M0 5400 l0 -5400 5400 0 5400 0 0 5400 0 5400 -5400 0 -5400 0 0
-5400z m6490 3231 c19 -10 49 -37 65 -60 26 -36 30 -52 30 -104 0 -47 -6 -71
-23 -98 l-22 -37 761 -923 c419 -508 772 -937 785 -952 l24 -28 72 35 c105 52
185 70 308 70 126 0 202 -18 317 -75 250 -125 405 -411 373 -688 -19 -166 -81
-292 -205 -416 -135 -136 -290 -199 -485 -199 -165 1 -294 45 -425 145 l-66
50 -232 -218 c-128 -120 -776 -726 -1439 -1346 l-1207 -1128 24 -45 c72 -135
45 -288 -66 -388 -153 -138 -395 -90 -489 96 -26 52 -30 72 -30 139 0 69 4 85
35 145 l35 68 -33 35 c-19 20 -614 646 -1322 1391 -708 745 -1298 1365 -1309
1378 -22 22 -22 22 -56 5 -23 -12 -57 -18 -97 -18 -52 0 -68 5 -104 30 -174
122 -85 387 125 373 l49 -3 362 780 c359 772 362 780 341 795 -140 99 -215
263 -189 415 29 167 132 286 294 336 144 45 309 1 413 -111 44 -48 96 -136 96
-165 0 -8 7 -15 15 -15 18 0 2964 548 2983 555 6 2 12 16 12 30 0 62 68 147
128 161 15 3 32 7 37 9 18 6 80 -7 115 -24z"/>
<path d="M6341 8514 c-41 -52 -17 -118 46 -130 27 -5 37 -1 63 24 37 37 39 74
5 107 -34 35 -86 34 -114 -1z"/>
<path d="M5065 8191 c-610 -115 -1275 -239 -1477 -276 l-368 -69 0 -56 0 -56
687 -163 c654 -156 687 -163 712 -148 14 9 380 229 813 489 433 260 787 476
788 481 0 4 -10 7 -22 6 -13 0 -522 -94 -1133 -208z"/>
<path d="M5477 7862 c-575 -358 -763 -479 -750 -484 39 -16 616 -149 627 -145
10 4 845 1021 894 1089 7 10 10 18 5 18 -4 0 -353 -215 -776 -478z"/>
<path d="M5894 7752 c-225 -299 -408 -546 -406 -550 2 -4 133 -38 293 -76
l290 -69 48 54 c54 61 129 106 193 117 l43 8 6 224 c4 124 7 358 8 520 l1 295
-34 11 -33 10 -409 -544z"/>
<path d="M6443 8280 l-23 -9 -2 -416 c-2 -228 -3 -461 -3 -516 l0 -102 55 -14
c105 -27 175 -84 227 -186 29 -58 42 -167 26 -227 l-9 -35 585 -292 c586 -293
586 -293 601 -270 8 12 34 46 58 75 24 30 41 59 38 65 -3 7 -340 444 -749 972
-484 624 -750 961 -763 962 -10 1 -29 -2 -41 -7z"/>
<path d="M2721 7958 c-122 -60 -136 -230 -25 -314 68 -52 188 -41 246 23 54
60 63 156 19 225 -52 82 -152 110 -240 66z"/>
<path d="M3172 7606 c-31 -59 -101 -138 -146 -163 -17 -9 -7 -38 129 -399 81
-214 151 -393 155 -397 4 -4 269 150 590 342 336 202 578 352 569 356 -20 7
-1248 325 -1257 325 -4 0 -22 -29 -40 -64z"/>
<path d="M2294 6633 c-197 -426 -360 -781 -362 -788 -2 -7 3 -15 10 -18 8 -2
289 160 626 362 528 316 611 369 607 386 -3 11 -76 196 -163 410 l-158 390
-75 7 c-41 4 -86 11 -100 16 l-26 10 -359 -775z"/>
<path d="M3975 6929 c-335 -208 -613 -383 -617 -387 -8 -8 155 -456 172 -475
4 -5 208 34 453 87 246 53 448 96 450 96 2 0 7 22 10 49 16 132 116 225 242
224 33 -1 67 -3 76 -5 12 -2 95 93 268 306 138 170 250 310 248 312 -6 7 -660
174 -676 173 -9 0 -290 -171 -626 -380z"/>
<path d="M5160 6774 c-135 -180 -249 -335 -254 -345 -25 -52 8 -43 577 161
l564 203 -5 71 c-2 39 -6 72 -7 74 -3 3 -614 162 -624 162 -3 0 -116 -147
-251 -326z"/>
<path d="M6327 7055 c-127 -45 -159 -212 -58 -298 83 -70 198 -55 264 35 24
33 33 114 18 161 -15 45 -68 93 -118 106 -48 14 -59 13 -106 -4z"/>
<path d="M5500 6544 l-565 -202 -2 -57 c-1 -32 -9 -77 -18 -101 -20 -54 -90
-119 -145 -135 l-43 -13 6 -129 c2 -70 7 -130 10 -133 3 -3 679 13 1503 35
825 23 1511 41 1525 41 25 0 26 3 32 73 3 39 15 99 26 131 12 33 20 60 19 61
-2 2 -267 133 -589 292 l-585 290 -37 -43 c-23 -26 -64 -56 -105 -76 -59 -29
-76 -33 -147 -33 -66 1 -90 5 -140 28 -67 32 -115 72 -154 133 l-27 41 -564
-203z"/>
<path d="M2915 6272 c-165 -103 -419 -261 -563 -351 -145 -89 -262 -165 -260
-167 4 -3 936 194 1215 257 l91 20 -86 214 c-48 118 -89 215 -92 214 -3 0
-140 -84 -305 -187z"/>
<path d="M4655 6413 c-37 -9 -83 -52 -95 -89 -23 -68 11 -143 76 -170 44 -18
68 -18 111 3 102 48 97 205 -7 247 -41 16 -50 17 -85 9z"/>
<path d="M8368 6231 c-77 -25 -118 -52 -176 -116 -118 -128 -142 -292 -66
-444 41 -83 121 -162 201 -199 51 -23 71 -26 163 -26 98 -1 109 1 171 31 161
79 256 259 228 431 -21 133 -127 267 -246 313 -81 31 -199 35 -275 10z"/>
<path d="M3987 6105 c-236 -51 -430 -95 -432 -97 -4 -4 90 -256 98 -265 5 -4
1027 24 1032 29 1 1 0 61 -4 133 l-6 129 -38 8 c-73 15 -142 69 -167 129 -9
20 -19 29 -34 28 -11 0 -214 -43 -449 -94z"/>
<path d="M2774 5845 c-336 -73 -617 -135 -625 -138 -22 -9 92 -7 743 11 334
10 610 20 613 24 3 3 -15 58 -41 122 -34 85 -50 116 -63 115 -9 -1 -291 -61
-627 -134z"/>
<path d="M6175 5758 c-786 -22 -1431 -41 -1432 -42 -2 -1 132 -2877 137 -2942
0 -1 21 -4 47 -8 26 -3 71 -20 100 -36 32 -18 59 -27 67 -23 26 16 2866 2675
2866 2684 0 5 -16 31 -35 57 -53 75 -95 174 -114 267 l-16 85 -95 -1 c-52 -1
-738 -19 -1525 -41z"/>
<path d="M1790 5753 c-50 -18 -76 -70 -60 -119 22 -65 95 -84 149 -38 76 63 3
191 -89 157z"/>
<path d="M4143 5704 c-238 -7 -441 -14 -451 -16 -17 -3 29 -130 409 -1133 236
-621 486 -1279 555 -1461 123 -323 126 -331 151 -326 l25 5 -7 91 c-3 50 -32
667 -65 1371 -33 704 -62 1326 -66 1383 l-6 102 -57 -1 c-31 -1 -250 -8 -488
-15z"/>
<path d="M2605 5660 c-319 -10 -581 -18 -582 -19 -2 0 -3 -7 -3 -14 0 -7 -9
-30 -20 -52 -16 -31 -17 -41 -7 -54 12 -15 2531 -2666 2627 -2764 44 -45 48
-47 73 -36 15 7 27 18 27 24 0 7 -265 669 -589 1471 l-590 1459 -178 1 c-98 1
-439 -7 -758 -16z"/>
<path d="M4827 2595 c-48 -17 -76 -41 -93 -82 -28 -66 -12 -128 46 -177 26
-21 42 -26 86 -26 48 0 58 4 94 36 44 40 65 95 54 141 -21 85 -108 136 -187
108z"/>
</g>
</svg>
