<?xml version="1.0" standalone="no"?>
<!DOCTYPE svg PUBLIC "-//W3C//DTD SVG 20010904//EN"
 "http://www.w3.org/TR/2001/REC-SVG-20010904/DTD/svg10.dtd">
<svg version="1.0" xmlns="http://www.w3.org/2000/svg"
 width="1080.000000pt" height="1080.000000pt" viewBox="0 0 1080.000000 1080.000000"
 preserveAspectRatio="xMidYMid meet">
<metadata>
Created by potrace 1.14, written by Peter Selinger 2001-2017
</metadata>
<g transform="translate(0.000000,1080.000000) scale(0.100000,-0.100000)"
fill="#000000" stroke="none">
<path d="M1 8298 c1 -1422 5 -2484 10 -2459 27 138 174 243 319 228 l57 -6
499 1075 c274 592 507 1093 516 1114 l17 39 -64 46 c-258 184 -320 542 -139
807 104 153 262 243 446 255 112 8 191 -8 295 -58 137 -65 249 -187 299 -324
13 -36 27 -59 36 -58 7 1 679 126 1493 278 814 152 1759 328 2100 391 341 63
630 119 643 124 17 7 22 18 22 45 0 80 62 170 147 212 67 32 164 36 226 9 100
-44 167 -145 167 -253 0 -50 -6 -73 -33 -125 l-33 -63 1118 -1357 1118 -1357
73 39 c371 200 835 140 1137 -147 139 -132 223 -268 285 -463 36 -114 45 -294
21 -423 -74 -388 -346 -680 -736 -788 -118 -33 -355 -33 -472 -1 -158 43 -307
119 -403 205 -49 43 -58 47 -72 36 -22 -17 -3980 -3714 -4047 -3780 -47 -45
-49 -49 -33 -66 29 -33 66 -126 77 -196 13 -86 1 -168 -39 -253 -158 -339
-654 -339 -812 0 -72 155 -59 288 47 463 l19 32 -61 63 c-34 35 -868 911
-1854 1948 -986 1037 -1820 1913 -1854 1947 l-61 63 -64 -26 c-54 -22 -76 -26
-130 -22 -137 10 -245 102 -271 231 -4 23 -8 -1255 -9 -2840 l-1 -2883 5400 0
5400 0 0 5400 0 5400 -5400 0 -5400 0 1 -2502z"/>
<path d="M6775 9871 c-37 -15 -58 -49 -63 -101 -4 -46 -2 -52 31 -85 39 -39
86 -46 136 -21 92 48 50 218 -54 215 -16 0 -39 -4 -50 -8z"/>
<path d="M5360 9460 c-641 -120 -1590 -298 -2110 -395 -520 -97 -948 -179
-952 -182 -5 -2 -8 -39 -8 -81 l0 -77 979 -233 978 -233 1154 694 c694 417
1155 700 1157 710 2 11 -3 17 -15 16 -10 -1 -542 -99 -1183 -219z"/>
<path d="M5515 8912 c-599 -372 -1089 -681 -1088 -687 2 -14 895 -227 910
-218 9 6 830 1012 1217 1490 32 40 56 77 54 83 -1 5 -493 -295 -1093 -668z"/>
<path d="M6105 8757 c-319 -425 -580 -778 -580 -786 0 -10 116 -42 418 -114
349 -84 420 -98 427 -86 71 114 200 206 328 232 33 7 63 15 65 17 2 3 7 336
10 741 l7 736 -38 12 c-20 7 -41 14 -47 16 -5 2 -271 -343 -590 -768z"/>
<path d="M6907 9511 c-33 -10 -49 -21 -52 -35 -2 -12 -6 -346 -8 -743 l-3
-723 25 0 c41 -1 154 -44 205 -79 158 -109 246 -301 217 -474 -6 -34 -13 -71
-16 -82 -5 -18 86 -66 830 -435 l836 -415 32 49 c17 27 53 74 79 105 27 31 47
63 45 72 -3 12 -2114 2749 -2136 2769 -3 3 -27 -1 -54 -9z"/>
<path d="M1640 9071 c-127 -42 -200 -138 -200 -265 0 -79 32 -149 91 -199 43
-37 118 -67 169 -67 91 0 199 70 240 157 61 125 3 290 -124 355 -43 22 -136
32 -176 19z"/>
<path d="M2238 8561 c-41 -88 -127 -188 -197 -231 -22 -14 -41 -31 -41 -39 0
-8 95 -266 212 -572 l211 -558 37 22 c1293 775 1619 974 1617 982 -2 5 -399
112 -883 237 -483 126 -888 231 -899 233 -17 5 -26 -7 -57 -74z"/>
<path d="M1472 8223 c-63 -124 -1012 -2184 -1012 -2196 0 -8 7 -18 16 -21 11
-4 312 172 870 506 470 282 863 520 873 528 21 16 37 -26 -367 970 l-87 214
-50 -3 c-46 -2 -165 17 -207 34 -13 5 -22 -3 -36 -32z"/>
<path d="M3930 7927 c-179 -112 -577 -360 -885 -551 -308 -191 -562 -350 -564
-352 -8 -7 254 -684 265 -684 6 0 295 61 643 135 348 74 633 135 635 135 2 0
6 30 9 67 13 135 104 258 223 302 59 23 165 28 221 12 l32 -9 353 435 c194
239 354 440 356 448 4 17 49 3 -483 140 -247 64 -457 118 -465 120 -8 3 -161
-87 -340 -198z"/>
<path d="M5044 7339 c-325 -434 -364 -490 -354 -508 6 -12 15 -21 21 -21 5 0
343 120 752 266 408 146 768 275 800 286 57 20 58 21 51 52 -4 17 -7 65 -8
106 l-2 74 -279 73 c-154 40 -355 93 -447 116 l-168 44 -366 -488z"/>
<path d="M6722 7761 c-182 -63 -231 -304 -87 -430 52 -45 94 -61 162 -61 153
0 263 121 251 275 -10 113 -70 187 -177 219 -68 20 -83 20 -149 -3z"/>
<path d="M6140 7248 c-107 -38 -445 -160 -750 -270 -305 -110 -579 -209 -608
-220 l-52 -19 6 -53 c8 -63 -15 -159 -50 -214 -36 -57 -111 -119 -172 -142
-30 -11 -60 -20 -65 -20 -10 0 -6 -210 7 -335 l5 -50 102 3 c204 6 4185 112
4215 112 31 0 32 1 32 44 0 58 24 184 51 263 11 35 19 68 17 73 -2 5 -111 62
-243 126 -132 64 -505 248 -830 408 l-590 292 -57 -62 c-150 -160 -389 -200
-592 -97 -64 32 -160 123 -194 185 -15 26 -29 48 -32 47 -3 0 -93 -32 -200
-71z"/>
<path d="M1490 6414 c-437 -272 -799 -499 -804 -504 -7 -7 -5 -10 5 -10 32 0
1849 395 1849 402 0 15 -243 608 -249 608 -3 -1 -364 -223 -801 -496z"/>
<path d="M4328 6841 c-50 -16 -90 -53 -114 -105 -37 -79 -27 -149 29 -213 39
-44 82 -63 142 -63 60 0 103 19 142 63 104 118 31 308 -123 322 -27 2 -61 0
-76 -4z"/>
<path d="M9725 6610 c-269 -37 -480 -260 -502 -530 -21 -271 154 -526 414
-603 181 -54 392 -9 536 115 157 133 234 367 187 568 -66 291 -347 490 -635
450z"/>
<path d="M3388 6407 c-425 -91 -618 -136 -618 -145 0 -14 126 -351 138 -368 5
-7 210 -5 657 7 358 10 688 18 733 18 l84 1 -6 163 c-10 233 -7 223 -64 231
-95 12 -217 109 -251 199 -7 19 -17 27 -33 26 -13 0 -301 -60 -640 -132z"/>
<path d="M1658 6036 c-488 -106 -891 -195 -894 -199 -4 -4 -5 -8 -3 -10 7 -5
1938 48 1943 54 3 3 -25 82 -62 177 -46 119 -72 172 -82 171 -8 0 -414 -87
-902 -193z"/>
<path d="M7500 5940 c-536 -15 -1436 -40 -2000 -55 -564 -15 -1028 -31 -1032
-34 -7 -6 186 -4179 193 -4185 2 -1 31 -8 64 -16 56 -11 133 -46 197 -87 l27
-17 143 135 c79 75 1000 936 2048 1914 1048 978 1906 1782 1908 1786 2 4 -18
36 -44 71 -90 121 -166 311 -189 471 l-7 47 -167 -1 c-91 -1 -605 -14 -1141
-29z"/>
<path d="M245 5900 c-56 -23 -92 -99 -75 -160 32 -117 200 -134 246 -25 27 67
12 132 -42 174 -28 22 -90 27 -129 11z"/>
<path d="M3645 5838 c-379 -11 -693 -23 -697 -27 -5 -4 347 -943 781 -2086
755 -1988 791 -2080 813 -2077 13 2 27 8 32 12 7 7 -170 3940 -187 4165 -2 24
-7 30 -27 31 -14 1 -335 -7 -715 -18z"/>
<path d="M1615 5780 c-539 -16 -990 -29 -1002 -29 -17 -1 -25 -10 -34 -43 -6
-24 -20 -60 -32 -80 l-20 -38 59 -65 c32 -36 894 -942 1914 -2014 l1855 -1948
37 21 c21 12 38 27 38 35 0 11 -797 1989 -1640 4071 l-46 115 -75 1 c-41 1
-515 -11 -1054 -26z"/>
<path d="M4572 1410 c-113 -48 -172 -188 -123 -295 80 -177 337 -154 391 36
16 55 12 102 -15 156 -35 70 -90 106 -170 110 -33 2 -70 -2 -83 -7z"/>
</g>
</svg>
